<svg width="500" height="500" viewBox="0 0 500 500" fill="none" xmlns="http://www.w3.org/2000/svg">
<g clip-path="url(#clip0_819_6078)">
<path d="M500 0H0V500H500V0Z" fill="#8CBFDA"/>
<path opacity="0.46" d="M242.016 398.247C341.984 398.247 423.024 390.663 423.024 381.307C423.024 371.951 341.984 364.367 242.016 364.367C142.048 364.367 61.0078 371.951 61.0078 381.307C61.0078 390.663 142.048 398.247 242.016 398.247Z" fill="#CACACA"/>
<path d="M451.566 97.4727L315.781 135.701L348.608 168.925C312.198 205.948 266.672 252.434 265.458 254.63C263.428 258.303 228.097 186.074 228.097 186.074L132.706 291.479L97.8796 245.409L21.7266 330.505L92.8226 282.074L131.238 332.169L216.984 245.067L253.544 319.789L381.014 201.722L416.297 237.431L451.566 97.4727Z" fill="#D03240"/>
<path d="M254.883 319.992L383.504 204.276L376.192 195.516L254.883 319.992Z" fill="#AE2436"/>
<path d="M131.242 332.17L221.88 254.875L217.038 245.082L131.242 332.17Z" fill="#AE2436"/>
<path d="M92.8236 282.074L21.7266 330.506L97.6256 288.337L92.8236 282.074Z" fill="#AE2436"/>
<path d="M318.94 248.477C302.997 221.089 260.387 233.343 260.23 233.388C247.967 249.097 231.919 273.434 224.48 300.852C211.578 348.406 227.429 372.367 227.429 372.367C227.429 372.367 236.276 390.799 287.886 385.638C305.49 383.878 321.499 384.502 335.016 384.212C357.898 337.617 334.912 275.916 318.94 248.477Z" fill="#404799"/>
<path d="M378.937 348.036C380.043 306.38 341.658 233.277 314.425 214.957H276.203C276.203 214.957 269.233 221.85 260.227 233.387C260.384 233.342 302.994 221.088 318.937 248.476C334.91 275.915 357.895 337.616 335.014 384.21C361.253 383.648 378.098 379.638 378.937 348.036Z" fill="#3B448E"/>
<path d="M276.205 214.957C276.205 214.957 244.195 168.041 266.717 168.817C289.239 169.594 285.069 177.748 299.192 176.195C313.314 174.642 316.033 164.546 332.342 170.759C348.651 176.972 310.985 219.298 310.985 219.298L276.205 214.957Z" fill="#404799"/>
<path d="M309.761 278.408C312.766 278.408 315.225 275.949 315.225 272.944C315.225 269.939 312.766 267.48 309.761 267.48H278.889H266.487C263.482 267.48 261.023 269.939 261.023 272.944C261.023 275.949 263.482 278.408 266.487 278.408H278.89C284.19 278.408 288.725 281.523 290.801 286.058H266.541C263.536 286.058 261.077 288.517 261.077 291.522C261.077 294.527 263.536 296.986 266.541 296.986H290.801C288.725 301.467 284.19 304.636 278.89 304.636H266.487C264.247 304.636 262.225 306.002 261.405 308.078C260.585 310.154 261.077 312.558 262.716 314.088L293.642 343.32C294.68 344.303 296.046 344.795 297.412 344.795C298.887 344.795 300.308 344.194 301.401 343.101C303.477 340.915 303.368 337.473 301.182 335.397L280.2 315.563C290.964 314.962 299.87 307.258 302.274 297.04H309.76C312.765 297.04 315.224 294.581 315.224 291.576C315.224 288.571 312.765 286.112 309.76 286.112H302.274C301.618 283.38 300.525 280.757 298.996 278.462H309.76V278.408H309.761Z" fill="#E9F4F9"/>
<path d="M295.575 385.014C295.575 385.014 262.815 385.014 254.304 367.113C254.304 367.113 252.708 381.199 265.673 386.452C265.673 386.452 288.697 387.124 295.575 385.014Z" fill="#3B448E"/>
<path d="M307.445 204.249C307.445 204.249 318.176 188.096 321.065 168.758C321.065 168.758 343.199 166.702 335.017 183.725C335.017 183.725 331.483 194.926 317.857 211.035L307.445 204.249Z" fill="#3B448E"/>
<path d="M276.519 216.721C275.321 216.742 274.139 216.169 273.436 215.095C272.347 213.435 272.8 211.21 274.457 210.114C275.206 209.618 293.126 198.062 318.044 206.953C319.919 207.622 320.897 209.684 320.228 211.56C319.56 213.434 317.501 214.413 315.621 213.744C294.222 206.112 279.057 215.725 278.422 216.137C277.833 216.519 277.174 216.709 276.519 216.721Z" fill="#18186B"/>
<path d="M322.896 222.565C322.501 222.565 322.1 222.5 321.706 222.362C290.294 211.378 270.17 222.015 269.972 222.125C268.227 223.077 266.035 222.433 265.081 220.683C264.128 218.934 264.774 216.745 266.523 215.792C267.454 215.285 289.69 203.532 324.086 215.555C325.966 216.212 326.957 218.269 326.3 220.149C325.781 221.635 324.386 222.565 322.896 222.565Z" fill="#1C1980"/>
<path d="M301.324 248.777C300.855 248.777 300.379 248.685 299.92 248.491C298.087 247.715 297.229 245.599 298.005 243.765C307.218 221.998 299.318 217.689 299.236 217.648C299.312 217.685 298.858 217.417 298.858 217.417L302.098 211.031C302.503 211.198 306.121 212.808 308.209 217.884C311.014 224.707 309.816 234.361 304.646 246.575C304.063 247.951 302.728 248.777 301.324 248.777Z" fill="#1C1980"/>
<path d="M331.888 259.052C329.916 259.318 328.102 257.936 327.834 255.966C327.825 255.9 326.889 249.302 323.512 241.75C319.132 231.952 312.906 225.215 305.008 221.725C303.187 220.92 302.363 218.791 303.167 216.969C303.972 215.148 306.099 214.325 307.923 215.128C330.712 225.198 334.816 253.784 334.979 254.996C335.245 256.971 333.861 258.786 331.888 259.052Z" fill="#1C1980"/>
<path fill-rule="evenodd" clip-rule="evenodd" d="M97.5781 364.289C97.5781 364.289 153.901 361.081 210.224 364.289H97.5781Z" fill="#F1E28E"/>
<path d="M97.5781 364.29V379.309H210.224V364.29H97.5781Z" fill="#CA9A27"/>
<mask id="mask0_819_6078" style="mask-type:luminance" maskUnits="userSpaceOnUse" x="97" y="364" width="114" height="16">
<path d="M97.5781 364.29V379.309H210.224V364.29H97.5781Z" fill="white"/>
</mask>
<g mask="url(#mask0_819_6078)">
<path d="M102.648 384.033V361.938" stroke="#ECD757" stroke-width="1.8694" stroke-miterlimit="10"/>
<path d="M111.258 383.599V361.504" stroke="#ECD757" stroke-width="1.8694" stroke-miterlimit="10"/>
<path d="M119.867 383.169V361.074" stroke="#ECD757" stroke-width="1.8694" stroke-miterlimit="10"/>
<path d="M128.477 382.236V360.141" stroke="#ECD757" stroke-width="1.8694" stroke-miterlimit="10"/>
<path d="M137.086 382.95V360.855" stroke="#ECD757" stroke-width="1.8694" stroke-miterlimit="10"/>
<path d="M145.695 382.95V360.855" stroke="#ECD757" stroke-width="1.8694" stroke-miterlimit="10"/>
<path d="M154.305 384.072V361.977" stroke="#ECD757" stroke-width="1.8694" stroke-miterlimit="10"/>
<path d="M162.922 382.95V360.855" stroke="#ECD757" stroke-width="1.8694" stroke-miterlimit="10"/>
<path d="M188.75 383.947V361.852" stroke="#ECD757" stroke-width="1.8694" stroke-miterlimit="10"/>
<path d="M171.531 382.95V360.855" stroke="#ECD757" stroke-width="1.8694" stroke-miterlimit="10"/>
<path d="M197.359 382.927V360.832" stroke="#ECD757" stroke-width="1.8694" stroke-miterlimit="10"/>
<path d="M180.141 383.372V361.277" stroke="#ECD757" stroke-width="1.8694" stroke-miterlimit="10"/>
<path d="M205.969 382.645V360.551" stroke="#ECD757" stroke-width="1.8694" stroke-miterlimit="10"/>
</g>
<path fill-rule="evenodd" clip-rule="evenodd" d="M92.7422 346.879C92.7422 346.879 149.065 343.671 205.388 346.879H92.7422Z" fill="#F1E28E"/>
<path d="M92.7422 346.879V361.898H205.388V346.879H92.7422Z" fill="#CA9A27"/>
<mask id="mask1_819_6078" style="mask-type:luminance" maskUnits="userSpaceOnUse" x="92" y="346" width="114" height="16">
<path d="M92.7422 346.879V361.898H205.388V346.879H92.7422Z" fill="white"/>
</mask>
<g mask="url(#mask1_819_6078)">
<path d="M97.8125 366.622V344.527" stroke="#ECD757" stroke-width="1.8694" stroke-miterlimit="10"/>
<path d="M106.422 366.188V344.094" stroke="#ECD757" stroke-width="1.8694" stroke-miterlimit="10"/>
<path d="M115.031 365.759V343.664" stroke="#ECD757" stroke-width="1.8694" stroke-miterlimit="10"/>
<path d="M123.641 364.825V342.73" stroke="#ECD757" stroke-width="1.8694" stroke-miterlimit="10"/>
<path d="M132.25 365.54V343.445" stroke="#ECD757" stroke-width="1.8694" stroke-miterlimit="10"/>
<path d="M140.859 365.54V343.445" stroke="#ECD757" stroke-width="1.8694" stroke-miterlimit="10"/>
<path d="M149.469 366.661V344.566" stroke="#ECD757" stroke-width="1.8694" stroke-miterlimit="10"/>
<path d="M158.078 365.54V343.445" stroke="#ECD757" stroke-width="1.8694" stroke-miterlimit="10"/>
<path d="M183.914 366.536V344.441" stroke="#ECD757" stroke-width="1.8694" stroke-miterlimit="10"/>
<path d="M166.695 365.54V343.445" stroke="#ECD757" stroke-width="1.8694" stroke-miterlimit="10"/>
<path d="M192.523 365.517V343.422" stroke="#ECD757" stroke-width="1.8694" stroke-miterlimit="10"/>
<path d="M175.305 365.962V343.867" stroke="#ECD757" stroke-width="1.8694" stroke-miterlimit="10"/>
<path d="M201.133 365.236V343.141" stroke="#ECD757" stroke-width="1.8694" stroke-miterlimit="10"/>
</g>
<path d="M191.471 385.222C219.862 385.222 242.878 362.206 242.878 333.814C242.878 305.422 219.862 282.406 191.471 282.406C163.079 282.406 140.062 305.422 140.062 333.814C140.062 362.206 163.079 385.222 191.471 385.222Z" fill="#CA9A27"/>
<path d="M189.244 385.222C217.636 385.222 240.652 362.206 240.652 333.814C240.652 305.422 217.636 282.406 189.244 282.406C160.852 282.406 137.836 305.422 137.836 333.814C137.836 362.206 160.852 385.222 189.244 385.222Z" fill="#ECD757"/>
<path d="M189.244 385.222C217.636 385.222 240.652 362.206 240.652 333.814C240.652 305.422 217.636 282.406 189.244 282.406C160.852 282.406 137.836 305.422 137.836 333.814C137.836 362.206 160.852 385.222 189.244 385.222Z" fill="#ECD757"/>
<path d="M189.241 375.267C212.134 375.267 230.693 356.709 230.693 333.815C230.693 310.922 212.134 292.363 189.241 292.363C166.348 292.363 147.789 310.922 147.789 333.815C147.789 356.709 166.348 375.267 189.241 375.267Z" fill="#CA9A27"/>
<path d="M189.245 292.363C188.941 292.363 188.639 292.368 188.336 292.375C210.809 292.859 228.879 311.226 228.879 333.815C228.879 356.404 210.809 374.772 188.336 375.255C188.638 375.262 188.941 375.267 189.245 375.267C212.138 375.267 230.697 356.708 230.697 333.815C230.697 310.922 212.138 292.363 189.245 292.363Z" fill="#F1E28E"/>
<path d="M150.572 333.815C150.572 311.388 168.384 293.123 190.632 292.389C190.17 292.374 189.706 292.363 189.241 292.363C166.348 292.363 147.789 310.922 147.789 333.815C147.789 356.708 166.348 375.267 189.241 375.267C189.707 375.267 190.17 375.257 190.632 375.241C168.384 374.506 150.572 356.242 150.572 333.815Z" fill="#B68D24"/>
<path fill-rule="evenodd" clip-rule="evenodd" d="M195.692 316.883C197.162 318.942 198.265 321.221 198.927 323.721H206.5L203.559 332.544H199.368C198.118 341.661 191.795 348.793 182.826 350.042L196.461 369.281H185.727L172.166 350.263V341.44H179.518C184.885 341.44 189.444 337.69 190.546 332.617H170.18L173.121 323.794H189.884C188.193 319.75 184.149 316.956 179.517 316.956H170.18L173.121 308.133H206.5L203.559 316.956H195.692V316.883Z" fill="#B68D24"/>
<path fill-rule="evenodd" clip-rule="evenodd" d="M197.646 315.055C199.116 317.114 200.219 319.393 200.881 321.893H208.454L205.513 330.716H201.322C200.072 339.833 193.749 346.965 184.779 348.214L198.414 367.453H187.68L174.119 348.435V339.612H181.471C186.838 339.612 191.397 335.862 192.499 330.789H172.133L175.074 321.966H191.837C190.146 317.922 186.102 315.128 181.47 315.128H172.133L175.074 306.305H208.453L205.512 315.128H197.645L197.646 315.055Z" fill="#ECD757"/>
</g>
<defs>
<clipPath id="clip0_819_6078">
<rect width="500" height="500" fill="white"/>
</clipPath>
</defs>
</svg>
