<svg width="500" height="500" viewBox="0 0 500 500" fill="none" xmlns="http://www.w3.org/2000/svg">
<g clip-path="url(#clip0_819_5892)">
<path d="M500 0H0V500H500V0Z" fill="white"/>
<path d="M198.9 386.156H61.6719V407.537H198.9V386.156Z" fill="#FFCC00"/>
<path opacity="0.5" d="M108.699 386.156H61.6719V407.537H108.699V386.156Z" fill="#FFCC00"/>
<path opacity="0.5" d="M198.898 386.156H153.844V407.537H198.898V386.156Z" fill="#FFCC00"/>
<path d="M193.9 364.84H56.6719V386.221H193.9V364.84Z" fill="#FFCC00"/>
<path opacity="0.5" d="M93.0889 364.84H56.6719V386.221H93.0889V364.84Z" fill="#FFCC00"/>
<path opacity="0.5" d="M193.897 364.84H136.086V386.221H193.897V364.84Z" fill="#FFCC00"/>
<path d="M208.861 343.375H71.6328V364.756H208.861V343.375Z" fill="#FFCC00"/>
<path opacity="0.5" d="M125.286 343.375H71.6328V364.756H125.286V343.375Z" fill="#FFCC00"/>
<path opacity="0.5" d="M208.857 343.375H169.836V364.756H208.857V343.375Z" fill="#FFCC00"/>
<path d="M200.337 322.156H63.1094V343.537H200.337V322.156Z" fill="#FFCC00"/>
<path opacity="0.5" d="M104.003 322.156H63.1094V343.537H104.003V322.156Z" fill="#FFCC00"/>
<path opacity="0.5" d="M200.339 322.156H144.672V343.537H200.339V322.156Z" fill="#FFCC00"/>
<path opacity="0.5" d="M193.386 386.156H61.6719V389.346H193.386V386.156Z" fill="#FFCC00"/>
<path opacity="0.5" d="M200.339 343.539H71.6328V346.849H200.339V343.539Z" fill="#FFCC00"/>
<path d="M397.336 389.348H226.336C216.395 389.348 208.336 381.289 208.336 371.348V103.348C208.336 93.4067 216.395 85.3477 226.336 85.3477H397.336C407.277 85.3477 415.336 93.4067 415.336 103.348V371.348C415.336 381.289 407.277 389.348 397.336 389.348Z" fill="#F0F1F3"/>
<path d="M395.336 348.348L395.336 105.348L228.336 105.348L228.336 348.348H395.336Z" fill="white"/>
<path opacity="0.5" d="M246.836 164.848H237.836V218.848H246.836V164.848Z" fill="#F3A100"/>
<path opacity="0.5" d="M260.836 154.848H251.836V218.848H260.836V154.848Z" fill="#1E2346"/>
<path opacity="0.5" d="M274.836 135.848H265.836V218.848H274.836V135.848Z" fill="#F3A100"/>
<path opacity="0.5" d="M288.836 157.848H279.836V218.848H288.836V157.848Z" fill="#1E2346"/>
<path opacity="0.5" d="M302.836 180.848H293.836V218.848H302.836V180.848Z" fill="#F3A100"/>
<path opacity="0.5" d="M316.836 153.348H307.836V218.848H316.836V153.348Z" fill="#F3A100"/>
<path opacity="0.5" d="M330.836 193.848H321.836V218.848H330.836V193.848Z" fill="#1E2346"/>
<path opacity="0.5" d="M344.836 201.348H335.836V218.848H344.836V201.348Z" fill="#F3A100"/>
<path opacity="0.5" d="M358.836 182.848H349.836V218.848H358.836V182.848Z" fill="#F3A100"/>
<path opacity="0.5" d="M372.836 172.848H363.836V218.848H372.836V172.848Z" fill="#1E2346"/>
<path opacity="0.5" d="M386.836 164.848H377.836V218.848H386.836V164.848Z" fill="#F3A100"/>
<path opacity="0.5" d="M377.836 325.848H386.836V271.848H377.836V325.848Z" fill="#F3A100"/>
<path opacity="0.5" d="M363.836 325.848H372.836V261.848H363.836V325.848Z" fill="#1E2346"/>
<path opacity="0.5" d="M349.836 325.848H358.836V242.848H349.836V325.848Z" fill="#F3A100"/>
<path opacity="0.5" d="M335.836 325.848H344.836V264.848H335.836V325.848Z" fill="#1E2346"/>
<path opacity="0.5" d="M321.836 325.848H330.836V287.848H321.836V325.848Z" fill="#F3A100"/>
<path opacity="0.5" d="M307.836 325.848H316.836V260.348H307.836V325.848Z" fill="#F3A100"/>
<path opacity="0.5" d="M293.836 325.848H302.836V300.848H293.836V325.848Z" fill="#1E2346"/>
<path opacity="0.5" d="M279.836 325.848H288.836V308.348H279.836V325.848Z" fill="#F3A100"/>
<path opacity="0.5" d="M265.836 325.848H274.836V289.848H265.836V325.848Z" fill="#F3A100"/>
<path opacity="0.5" d="M251.836 325.848H260.836V279.848H251.836V325.848Z" fill="#1E2346"/>
<path opacity="0.5" d="M237.836 325.848H246.836V271.848H237.836V325.848Z" fill="#F3A100"/>
<path d="M311.836 376.848C317.635 376.848 322.336 372.147 322.336 366.348C322.336 360.549 317.635 355.848 311.836 355.848C306.037 355.848 301.336 360.549 301.336 366.348C301.336 372.147 306.037 376.848 311.836 376.848Z" fill="white"/>
<path d="M447.622 207.707H246.273V311.629H447.622V207.707Z" fill="#6CACAC"/>
<path d="M419.898 300.26H273.993V298.636C273.993 288.787 266.793 280.774 257.943 280.774H256.484V238.556H257.943C266.793 238.556 273.993 230.543 273.993 220.694V219.07H419.898V220.694C419.898 230.543 427.098 238.556 435.948 238.556H437.407V280.774H435.948C427.099 280.774 419.898 288.787 419.898 298.636V300.26ZM276.856 297.013H417.036C417.748 286.665 425.192 278.38 434.49 277.589V241.742C425.192 240.951 417.748 232.666 417.036 222.318H276.856C276.145 232.666 268.701 240.951 259.403 241.742V277.589C268.701 278.38 276.145 286.665 276.856 297.013Z" fill="#5A9997"/>
<path d="M366.495 241.76H361.346C360.766 240.3 359.992 238.94 359.046 237.714H364.35L368.835 231.138L366.495 229.355H330.349L325.865 235.931L328.204 237.714H345.717V237.715C347.515 237.715 349.204 238.18 350.671 238.994C351.463 239.799 352.127 240.731 352.622 241.761H329.547L325.062 248.337L327.402 250.12H352.854C351.313 253.838 347.652 256.457 343.376 256.457H326.277L326.264 263.987L340.031 288.194L342.371 289.977H351.815L337.827 264.814H345.517C345.583 264.817 345.651 264.817 345.717 264.817C345.768 264.817 345.819 264.817 345.867 264.814C354.372 264.742 361.356 258.357 362.405 250.121H364.35L368.835 243.545L366.495 241.76Z" fill="#5A9997"/>
<path d="M356.706 235.931H362.01L366.495 229.355H330.349L325.865 235.931H343.378C347.455 235.931 350.966 238.316 352.622 241.76H329.547L325.062 248.336H353.411C352.425 252.975 348.309 256.456 343.376 256.456H326.277L326.264 263.986L340.031 288.193H349.475L335.487 263.03H343.177C343.243 263.033 343.311 263.033 343.376 263.033C343.427 263.033 343.479 263.033 343.526 263.03C352.031 262.958 359.015 256.573 360.064 248.337H362.01L366.493 241.761H359.605C359.021 239.615 358.027 237.644 356.706 235.931Z" fill="#A2C2C0"/>
<path d="M443.372 202.355H242.023V306.277H443.372V202.355Z" fill="#7BC3C3"/>
<path d="M415.648 294.913H269.742V293.289C269.742 283.44 262.542 275.427 253.693 275.427H252.234V233.209H253.693C262.543 233.209 269.742 225.196 269.742 215.347V213.723H415.647V215.347C415.647 225.196 422.847 233.209 431.696 233.209H433.155V275.427H431.696C422.847 275.427 415.647 283.44 415.647 293.289V294.913H415.648ZM272.605 291.665H412.785C413.496 281.317 420.941 273.032 430.238 272.241V236.394C420.94 235.603 413.496 227.318 412.785 216.971H272.605C271.894 227.319 264.45 235.604 255.152 236.394V272.241C264.45 273.033 271.894 281.318 272.605 291.665Z" fill="#68B0AE"/>
<path d="M362.245 236.413H357.097C356.516 234.953 355.742 233.593 354.796 232.367H360.101L364.585 225.791L362.245 224.008H326.099L321.615 230.584L323.955 232.367H341.468C343.266 232.367 344.954 232.833 346.421 233.647C347.213 234.452 347.877 235.384 348.372 236.413H325.297L320.812 242.989L323.153 244.772H348.604C347.063 248.491 343.403 251.109 339.127 251.109H322.027L322.015 258.639L335.781 282.846L338.121 284.629H347.565L333.577 259.466H341.267C341.333 259.469 341.402 259.469 341.467 259.469C341.518 259.469 341.569 259.469 341.616 259.466C350.121 259.394 357.105 253.009 358.154 244.773H360.1L364.584 238.197L362.245 236.413Z" fill="#68B0AE"/>
<path d="M352.456 230.584H357.761L362.245 224.008H326.099L321.615 230.584H339.128V230.585C343.205 230.585 346.716 232.969 348.372 236.413H325.297L320.812 242.989H349.162C348.176 247.628 344.06 251.109 339.127 251.109H322.027L322.015 258.639L335.781 282.846H345.225L331.237 257.683H338.927C338.993 257.686 339.061 257.686 339.127 257.686C339.178 257.686 339.229 257.686 339.276 257.683C347.781 257.611 354.765 251.227 355.814 242.99H357.76L362.243 236.414H355.355C354.771 234.268 353.777 232.297 352.456 230.584Z" fill="#B5D9D7"/>
<path d="M436.333 196.582H234.984V300.504H436.333V196.582Z" fill="#86D4D4"/>
<path d="M408.608 289.135H262.703V287.511C262.703 277.662 255.503 269.649 246.654 269.649H245.195V227.431H246.654C255.504 227.431 262.703 219.418 262.703 209.569V207.945H408.608V209.569C408.608 219.418 415.808 227.431 424.657 227.431H426.116V269.649H424.657C415.808 269.649 408.608 277.662 408.608 287.511V289.135ZM265.566 285.888H405.746C406.457 275.54 413.902 267.255 423.199 266.465V230.618C413.901 229.827 406.457 221.542 405.746 211.194H265.566C264.855 221.542 257.411 229.827 248.113 230.618V266.465C257.411 267.255 264.855 275.54 265.566 285.888Z" fill="#72C1BF"/>
<path d="M355.205 230.639H350.057C349.476 229.179 348.702 227.819 347.756 226.593H353.061L357.545 220.017L355.205 218.234H319.059L314.575 224.81L316.915 226.593H334.428V226.594C336.226 226.594 337.914 227.059 339.381 227.873C340.173 228.678 340.837 229.61 341.332 230.639H318.257L313.773 237.215L316.113 238.998H341.564C340.023 242.717 336.363 245.335 332.087 245.335H314.987L314.975 252.865L328.741 277.072L331.081 278.855H340.525L326.537 253.692H334.227C334.293 253.695 334.361 253.695 334.427 253.695C334.478 253.695 334.529 253.695 334.577 253.692C343.082 253.62 350.066 247.236 351.115 238.999H353.061L357.545 232.423L355.205 230.639Z" fill="#72C1BF"/>
<path d="M345.416 224.81H350.721L355.205 218.234H319.059L314.575 224.81H332.088C336.165 224.81 339.676 227.195 341.332 230.639H318.257L313.773 237.215H342.122C341.136 241.854 337.02 245.335 332.087 245.335H314.987L314.975 252.865L328.741 277.072H338.185L324.197 251.909H331.887C331.953 251.912 332.021 251.912 332.087 251.912C332.138 251.912 332.189 251.912 332.236 251.909C340.741 251.837 347.725 245.453 348.774 237.216H350.72L355.204 230.64H348.316C347.731 228.494 346.737 226.523 345.416 224.81Z" fill="#C3EAE8"/>
<g opacity="0.5">
<path d="M103.386 213.496L98.1719 208.825L174.065 124.119L221.965 172.462L313.277 90.1953L348.308 140.248L378.743 113.605L383.353 118.872L347.047 150.655L312.082 100.694L221.691 182.131L174.321 134.323L103.386 213.496Z" fill="#1E2346"/>
<path d="M387.934 131.083L398.055 101.348L367.242 107.447L387.934 131.083Z" fill="#1E2346"/>
</g>
<path d="M382.336 415.325C416.168 415.325 443.594 387.898 443.594 354.067C443.594 320.235 416.168 292.809 382.336 292.809C348.504 292.809 321.078 320.235 321.078 354.067C321.078 387.898 348.504 415.325 382.336 415.325Z" fill="#FFCC00"/>
<path d="M382.332 401.079C408.296 401.079 429.344 380.031 429.344 354.067C429.344 328.103 408.296 307.055 382.332 307.055C356.368 307.055 335.32 328.103 335.32 354.067C335.32 380.031 356.368 401.079 382.332 401.079Z" fill="#D68900"/>
<path d="M382.333 399.298C407.313 399.298 427.564 379.047 427.564 354.067C427.564 329.087 407.313 308.836 382.333 308.836C357.352 308.836 337.102 329.087 337.102 354.067C337.102 379.047 357.352 399.298 382.333 399.298Z" fill="#F3A100"/>
<path d="M404.405 335.939H398.921C398.302 334.384 397.477 332.935 396.47 331.629H402.122L406.899 324.623L404.406 322.723H365.898L361.121 329.729L363.614 331.629H382.271V331.63C384.187 331.63 385.984 332.125 387.548 332.992C388.392 333.849 389.099 334.842 389.626 335.939H365.043L360.266 342.945L362.759 344.844H389.873C388.231 348.805 384.333 351.595 379.777 351.595H361.559L361.547 359.617L376.212 385.405L378.705 387.304H388.766L373.864 360.496H382.056C382.126 360.499 382.199 360.499 382.269 360.499C382.323 360.499 382.377 360.499 382.428 360.496C391.489 360.42 398.929 353.618 400.046 344.843H402.119L406.896 337.837L404.405 335.939Z" fill="#D68900"/>
<path d="M393.977 329.729H399.629L404.406 322.723H365.898L361.121 329.729H379.778C384.121 329.729 387.862 332.269 389.626 335.939H365.043L360.266 342.945H390.468C389.418 347.887 385.032 351.595 379.778 351.595H361.56L361.548 359.617L376.214 385.405H386.275L371.373 358.597H379.565C379.635 358.6 379.708 358.6 379.778 358.6C379.832 358.6 379.886 358.6 379.937 358.597C388.997 358.521 396.438 351.719 397.555 342.944H399.628L404.405 335.938H397.067C396.444 333.654 395.384 331.554 393.977 329.729Z" fill="#FFCC00"/>
<path d="M304.003 354.848H212.336V409.181H304.003V354.848Z" fill="#F9A91C"/>
<path d="M280.586 264.223C280.586 264.223 276.586 262.473 271.586 263.348L277.086 249.348L283.461 252.598L280.586 264.223Z" fill="#141930"/>
<path d="M277.024 256.72C279.82 256.72 282.087 254.453 282.087 251.657C282.087 248.861 279.82 246.594 277.024 246.594C274.228 246.594 271.961 248.861 271.961 251.657C271.961 254.453 274.228 256.72 277.024 256.72Z" fill="#E6976D"/>
<path d="M259.207 246.473C259.207 246.473 257.582 254.848 255.957 256.723C254.332 258.598 252.082 260.348 253.332 262.348C254.582 264.348 257.457 264.829 259.832 264.473C262.332 264.098 264.957 263.473 266.582 264.223C268.207 264.973 267.082 254.473 267.082 254.473L263.832 243.598C263.832 243.598 258.707 246.348 259.207 246.473Z" fill="#141930"/>
<path d="M217.167 313.348C217.167 313.348 212.167 315.681 205.5 317.515C205.5 317.515 212.5 322.682 220 316.848L217.167 313.348Z" fill="#E6976D"/>
<path d="M254.664 271.512C254.664 271.512 246.331 299.512 217.164 313.345L219.664 318.512C219.664 318.512 239.664 315.512 260.831 288.345L254.664 271.512Z" fill="#E59303"/>
<path d="M208.211 391.223C208.211 391.223 202.586 399.598 196.836 401.848C196.836 401.848 203.086 402.348 206.586 399.098C210.086 395.848 208.211 391.223 208.211 391.223Z" fill="#E6976D"/>
<path d="M224.969 353.04C224.969 353.04 242.89 392.655 243.833 400.201C244.776 407.747 237.859 418.751 237.859 418.751H241.003L251.378 405.86L239.745 357.127L250.12 355.869L244.775 342.349L225.282 342.035L224.969 353.04Z" fill="#E37463"/>
<path d="M226.083 326.631C226.083 326.631 217.594 324.745 215.708 332.29C213.821 339.836 204.844 399.258 204.844 399.258L213.019 397.057L226.853 344.551L249.805 345.494C249.803 345.495 238.344 330.718 226.083 326.631Z" fill="#E6976D"/>
<path d="M213.02 397.055C213.02 397.055 214.278 400.828 212.077 403.658C209.876 406.488 206.252 410.845 206.252 410.845L205.309 409.273L207.362 403.344L194.567 404.916L187.336 400.829C187.336 400.829 196.169 402.012 204.847 399.257L213.02 397.055Z" fill="#42528E"/>
<path d="M241.003 418.75L251.378 405.859C253.893 408.898 253.264 411.623 253.264 411.623L252.845 422.313H250.959L250.12 413.09L241.946 421.265H233.352L237.858 418.75H241.003Z" fill="#42528E"/>
<path d="M276.36 268.37L285.424 272.327C287.653 273.3 288.83 275.758 288.191 278.105C286.425 284.596 284.076 301.563 286.454 317.895H257.278C257.278 317.895 253.084 292.08 253.479 273.604C253.529 271.276 255.22 269.309 257.512 268.898L265.583 267.449L276.36 268.37Z" fill="#F9A91C"/>
<path d="M280.748 274.349C280.489 277.844 275.463 280.32 269.523 279.88C263.583 279.439 258.978 276.249 259.237 272.754C259.496 269.259 264.522 266.783 270.462 267.223C276.402 267.663 281.007 270.854 280.748 274.349Z" fill="#E37463"/>
<path d="M275.247 256.559C275.247 256.559 275.4 264.23 276.628 268.832C276.628 268.832 271.105 270.213 264.508 268.832C264.508 268.832 267.116 266.224 267.576 258.093L275.247 256.559Z" fill="#E37463"/>
<path d="M255.977 277.766L249.688 289.886C249.688 289.886 251.681 296.483 260.273 295.716L269.172 289.886L255.977 277.766Z" fill="#F9A91C"/>
<path d="M286.448 317.898C286.448 317.898 290.877 329.848 291.126 337.56C291.364 344.933 289.223 354.21 272.494 355.478C256.761 356.671 254.259 357.064 242.208 357.064C242.208 357.064 238.878 332.962 230.633 326.302C230.633 326.302 243.08 322.338 257.272 317.898H286.448Z" fill="#42528E"/>
<path d="M288.039 275.119C287.568 274.784 287.139 274.547 286.841 274.4C282.764 272.382 278.5 278.878 278.5 278.878C278.5 278.878 271.992 292.272 255.406 304.198C255.939 308.71 256.466 312.486 256.824 314.926C264.998 311.449 274.298 306.086 281.871 297.933C283.427 296.258 284.738 294.7 285.85 293.243C286.383 286.63 287.352 281.187 288.19 278.106C288.468 277.085 288.385 276.05 288.039 275.119Z" fill="#D68505"/>
<path d="M279.167 277.345C279.167 277.345 266.5 301.178 233.75 312.262L236.083 317.762C236.083 317.762 263.416 314.929 281.833 296.512C298.333 280.012 289.764 274.315 287.666 273.179C283.667 271.011 279.167 277.345 279.167 277.345Z" fill="#F3A100"/>
<path d="M233.75 312.262L221.5 316.845L223.833 322.512C223.833 322.512 230 323.512 236.083 317.762L233.75 312.262Z" fill="#E6976D"/>
<path opacity="0.4" d="M275.717 263.523C275.623 262.676 275.546 261.843 275.485 261.063L267.65 258.078L267.576 258.093C267.261 263.651 265.944 266.625 265.141 267.953C270.643 267.575 273.988 265.229 275.717 263.523Z" fill="#E37463"/>
<path d="M269.04 264.996H268.254C263.98 264.996 260.516 261.532 260.516 257.258V243.211H276.778V257.258C276.778 261.532 273.314 264.996 269.04 264.996Z" fill="#E6976D"/>
<path d="M272.712 243.597C272.712 243.597 272.837 248.722 276.212 251.847C276.212 251.847 277.587 248.222 279.337 250.597C281.087 252.972 279.462 255.472 276.587 255.847C276.587 255.847 275.712 262.472 278.462 265.347C281.212 268.222 281.212 262.972 284.837 263.472C288.462 263.972 290.837 262.972 288.837 259.722C286.837 256.472 283.462 248.222 283.087 244.222C282.712 240.222 281.462 233.847 276.962 235.347C276.962 235.347 276.337 231.222 271.837 230.972C267.337 230.722 264.212 234.972 260.712 234.347C257.212 233.722 253.712 235.097 253.212 239.347C252.597 244.574 254.462 248.347 260.962 247.472C260.962 247.472 270.587 245.972 272.712 243.597Z" fill="#1E2346"/>
<path d="M311.509 323.766H169.75V329.157H311.509V323.766Z" fill="#1A427D"/>
<path d="M313.135 325.906H168.125V327.016H313.135V325.906Z" fill="#A9BFF8"/>
<path d="M155.352 321.211C196.359 321.211 229.602 287.968 229.602 246.961C229.602 205.954 196.359 172.711 155.352 172.711C114.344 172.711 81.1016 205.954 81.1016 246.961C81.1016 287.968 114.344 321.211 155.352 321.211Z" fill="#FFCC00"/>
<path d="M210.98 259.342C217.825 228.624 198.471 198.172 167.752 191.327C137.034 184.482 106.582 203.836 99.7376 234.555C92.8926 265.273 112.246 295.725 142.965 302.57C173.684 309.414 204.135 290.061 210.98 259.342Z" fill="#D68900"/>
<path d="M208.785 259.272C215.582 229.766 197.173 200.336 167.667 193.538C138.161 186.741 108.731 205.15 101.933 234.656C95.1355 264.162 113.545 293.593 143.051 300.39C172.557 307.188 201.987 288.778 208.785 259.272Z" fill="#F3A100"/>
<path d="M182.102 224.992H175.455C174.705 223.107 173.705 221.351 172.484 219.767H179.334L185.124 211.275L182.102 208.973H135.427L129.637 217.465L132.659 219.767H155.273C157.595 219.767 159.774 220.368 161.669 221.419C162.692 222.458 163.549 223.662 164.188 224.991H134.392L128.602 233.483L131.624 235.785H164.489C162.499 240.587 157.774 243.968 152.252 243.968H130.171L130.156 253.692L147.932 284.95L150.954 287.252H163.149L145.087 254.759H155.017C155.102 254.763 155.191 254.763 155.276 254.763C155.342 254.763 155.407 254.763 155.469 254.759C166.451 254.667 175.47 246.422 176.824 235.786H179.337L185.127 227.294L182.102 224.992Z" fill="#D68900"/>
<path d="M169.463 217.465H176.313L182.103 208.973H135.428L129.638 217.465H152.252C157.517 217.465 162.051 220.544 164.188 224.992H134.392L128.602 233.484H165.209C163.936 239.474 158.621 243.969 152.251 243.969H130.17L130.155 253.692L147.931 284.95H160.126L142.064 252.457H151.994C152.079 252.461 152.168 252.461 152.252 252.461C152.318 252.461 152.383 252.461 152.445 252.457C163.427 252.365 172.446 244.12 173.8 233.484H176.313L182.103 224.992H173.209C172.454 222.222 171.17 219.677 169.463 217.465Z" fill="#FFCC00"/>
<path d="M309.29 329.156H172.922V331.693H309.29V329.156Z" fill="#102F54"/>
<path d="M164.355 425.802H159.836L176.485 331.695H183.383L164.355 425.802Z" fill="#E6976D"/>
<path d="M315.005 425.802H319.524L302.874 331.695H295.977L315.005 425.802Z" fill="#E6976D"/>
<path d="M227.276 321.28H181.026L172.922 291.168H219.172L227.276 321.28Z" fill="#F0F1F5"/>
<path d="M227.378 321.28H226.003L217.898 291.168L219.273 292.599L227.378 321.28Z" fill="#CBCED8"/>
<path d="M246.773 321.281H181.023V323.767H246.773V321.281Z" fill="#CBCED8"/>
<path d="M200.937 306.589C201.424 309.214 199.984 311.681 197.721 312.101C195.458 312.52 193.23 310.733 192.743 308.108C192.256 305.483 193.696 303.016 195.959 302.596C198.222 302.177 200.451 303.964 200.937 306.589Z" fill="#CBCED8"/>
<path d="M76.7412 416.552H50.1842L46.8672 383.496H80.0572L76.7412 416.552Z" fill="#F0F1F3"/>
<path d="M80.0572 383.497C80.0572 381.665 72.6272 380.18 63.4622 380.18C54.2972 380.18 46.8672 381.665 46.8672 383.497C46.8672 385.329 54.2972 386.814 63.4622 386.814C72.6272 386.814 80.0572 385.329 80.0572 383.497Z" fill="#F0F1F3"/>
<path d="M78.0468 383.496C78.0468 381.887 71.5188 380.582 63.4648 380.582C55.4118 380.582 48.8828 381.887 48.8828 383.496C48.8828 385.105 55.4108 386.41 63.4648 386.41C71.5178 386.41 78.0468 385.106 78.0468 383.496Z" fill="#1E2346"/>
<path d="M76.7435 416.442C76.7435 414.61 70.7985 413.125 63.4655 413.125C56.1325 413.125 50.1875 414.61 50.1875 416.442C50.1875 418.274 56.1325 419.759 63.4655 419.759C70.7985 419.759 76.7435 418.274 76.7435 416.442Z" fill="#F0F1F3"/>
<path d="M79.3774 372.058C79.4744 370.506 78.8044 369.369 78.2244 368.357C77.6474 367.347 77.1924 366.475 77.8574 365.511C78.2024 365.039 78.8584 364.579 79.6654 364.095C80.4704 363.609 81.4374 363.109 82.5064 362.616C84.5924 361.581 86.9224 360.497 88.6554 358.95C89.5434 358.192 90.1384 357.412 90.6074 356.69C91.0794 355.97 91.3674 355.25 91.5494 354.534C91.8954 353.085 91.9044 351.76 92.0084 350.494C92.0714 349.876 92.4814 349.262 93.1584 348.733C93.8344 348.203 94.7314 347.703 95.6914 347.21C96.6654 346.736 97.7364 346.319 98.7074 345.847C99.6734 345.363 100.631 344.964 101.338 344.415C101.733 344.121 102.052 343.759 102.312 343.355C102.583 342.97 102.795 342.539 102.961 342.084C103.293 341.175 103.446 340.172 103.514 339.275C103.642 337.573 102.864 335.979 101.344 335.188C100.545 334.771 99.5734 334.39 98.5324 334.24C98.0124 334.165 97.4754 334.147 96.9384 334.21C96.4124 334.292 95.8894 334.458 95.3834 334.725C94.4754 335.226 93.4864 335.904 92.5844 336.774C91.6744 337.633 90.7544 338.546 89.9064 339.427C89.0714 340.327 88.2704 341.146 87.5054 341.735C86.7404 342.323 86.0584 342.738 85.3784 342.732C84.0444 342.749 82.5134 342.593 80.9004 343.081C80.0854 343.315 79.2264 343.685 78.3274 344.27C77.4304 344.857 76.5514 345.718 75.6234 346.841C73.8004 349.126 72.7574 352.049 72.1014 354.635C71.7424 355.909 71.5094 357.131 71.2634 358.158C71.0174 359.184 70.7454 360.008 70.4034 360.566C69.7464 361.698 68.7404 361.699 67.5214 361.708C66.3064 361.719 64.8504 361.715 63.4274 362.941C62.8644 363.417 62.5764 364.185 62.4654 365.183C62.3644 366.187 62.4914 367.449 62.6744 368.867C62.8414 370.277 63.1784 371.9 63.4934 373.634C63.7744 375.355 64.1714 377.245 64.4144 379.2C64.5894 380.571 66.0664 381.057 67.0734 380.154C68.5314 378.852 69.9674 377.811 71.4274 377.005C72.8514 376.184 74.1674 375.547 75.3624 375.029C76.5414 374.504 77.4894 374.047 78.1954 373.591C78.9114 373.142 79.3324 372.664 79.3774 372.058Z" fill="#26377C"/>
<path d="M64.3053 384.178C64.1093 384.122 64.0072 383.899 64.0762 383.68C64.0762 383.68 64.3473 382.827 64.8203 381.334C65.0393 380.582 65.3712 379.691 65.7612 378.672C66.1452 377.651 66.5602 376.492 67.1212 375.272C69.2332 370.347 72.6253 363.979 77.0573 358.346C79.1963 355.474 81.6443 352.853 83.9753 350.443C86.3823 348.107 88.7142 346.012 90.8412 344.374C92.9302 342.686 94.8093 341.466 96.0843 340.558C97.4133 339.729 98.1722 339.256 98.1722 339.256C98.3672 339.135 98.6102 339.178 98.7162 339.352C98.8222 339.526 98.7512 339.765 98.5592 339.885C98.5592 339.885 97.8072 340.354 96.4912 341.174C95.2292 342.074 93.3682 343.281 91.2992 344.954C89.1922 346.576 86.8822 348.652 84.4972 350.966C82.1892 353.354 79.7622 355.95 77.6432 358.796C73.2522 364.377 69.8922 370.685 67.8012 375.563C67.2452 376.771 66.8352 377.919 66.4542 378.93C66.0682 379.939 65.7392 380.821 65.5222 381.566C65.0532 383.044 64.7852 383.888 64.7852 383.888C64.7162 384.104 64.5013 384.234 64.3053 384.178Z" fill="white"/>
<path d="M68.1929 365.996C67.1469 364.624 65.7519 364.358 64.5939 364.127C63.4309 363.897 62.4719 363.718 62.1389 362.597C61.9569 362.041 61.9119 361.26 61.9409 360.3C61.9719 359.339 62.0619 358.202 62.0429 356.992C62.0749 354.551 61.8089 351.715 60.6389 349.336C60.0339 348.163 59.4099 347.238 58.7049 346.565C57.9969 345.893 57.2759 345.428 56.5659 345.097C55.1659 344.42 53.6969 344.358 52.4569 344.17C51.8209 344.087 51.2839 343.615 50.7089 342.972C50.1349 342.328 49.5779 341.464 49.0069 340.52C48.4189 339.592 47.7689 338.623 47.1139 337.705C46.7919 337.241 46.4379 336.82 46.0709 336.445C45.7079 336.066 45.3389 335.725 44.9669 335.442C44.5569 335.131 44.1089 334.915 43.6429 334.779C43.1619 334.661 42.6649 334.619 42.1739 334.636C41.1899 334.668 40.2269 334.932 39.4169 335.251C37.8769 335.855 36.8629 337.31 36.6229 338.94C36.4979 339.799 36.4229 340.763 36.5229 341.651C36.5729 342.095 36.6679 342.52 36.8249 342.905C36.9679 343.308 37.1719 343.676 37.4589 343.987C37.7199 344.269 38.0319 344.535 38.3809 344.791C38.7369 345.038 39.1109 345.297 39.4939 345.563C40.2589 346.094 41.1299 346.583 41.9019 347.119C42.6559 347.671 43.3529 348.225 43.8429 348.783C44.3329 349.34 44.5579 349.947 44.4629 350.517C44.2449 351.682 43.9199 352.883 43.8659 354.223C43.8499 354.885 43.9269 355.562 44.1729 356.255C44.4169 356.951 44.7599 357.709 45.3809 358.483C46.5739 360.052 48.4559 361.296 50.1399 362.495C51.0129 363.076 51.7899 363.654 52.4209 364.199C53.0529 364.742 53.5519 365.245 53.7519 365.71C54.1239 366.652 53.4579 367.334 52.6379 368.107C51.8139 368.882 50.8689 369.744 50.5349 371.067C50.4119 371.584 50.6749 372.058 51.2249 372.567C51.7629 373.078 52.5309 373.635 53.5059 374.299C54.4989 374.96 55.5719 375.75 56.7129 376.724C57.8909 377.693 58.9869 378.863 60.0499 380.265C60.7859 381.241 62.3419 381.186 62.8659 380.044C63.6139 378.405 64.4979 376.847 65.2299 375.404C66.0009 373.956 66.7619 372.602 67.3069 371.395C67.8699 370.185 68.3369 369.093 68.5129 368.183C68.6789 367.272 68.6099 366.531 68.1929 365.996Z" fill="#86D4D4"/>
<path d="M61.6798 384.301C61.4758 384.302 61.3048 384.141 61.2978 383.942C61.2978 383.942 61.2698 383.164 61.2208 381.803C61.2148 381.121 61.1378 380.297 61.0398 379.353C60.9478 378.408 60.8648 377.34 60.6568 376.19C59.9658 371.58 58.4318 365.473 55.7328 359.842C54.4698 356.99 52.8538 354.315 51.2978 351.846C49.6518 349.434 48.0148 347.248 46.4578 345.505C44.9478 343.719 43.5198 342.391 42.5698 341.414C41.5528 340.507 40.9718 339.989 40.9718 339.989C40.8228 339.856 40.8108 339.624 40.9438 339.47C41.0768 339.316 41.3078 339.3 41.4588 339.435C41.4588 339.435 42.0468 339.96 43.0768 340.879C44.0388 341.868 45.4848 343.214 47.0138 345.021C48.5898 346.786 50.2468 348.998 51.9128 351.44C53.4888 353.938 55.1238 356.646 56.4018 359.532C59.1328 365.23 60.6868 371.412 61.3868 376.08C61.5978 377.245 61.6818 378.327 61.7748 379.284C61.8748 380.24 61.9518 381.075 61.9578 381.766C62.0078 383.146 62.0358 383.934 62.0358 383.934C62.0428 384.135 61.8838 384.3 61.6798 384.301Z" fill="white"/>
<path d="M71.1628 363.566C70.5458 361.885 69.4388 361.073 68.4658 360.346C67.4968 359.62 66.6978 358.975 66.8588 357.618C66.9568 356.942 67.3408 356.107 67.8498 355.159C68.3558 354.21 69.0018 353.152 69.7498 352.038C71.1718 349.791 72.8078 347.327 73.7138 344.734C74.1948 343.442 74.3948 342.301 74.5108 341.296C74.6298 340.293 74.5798 339.4 74.4338 338.579C74.1148 336.929 73.5478 335.618 73.0848 334.314C72.8718 333.67 72.9768 332.823 73.3718 331.901C73.7658 330.978 74.3788 329.952 75.0528 328.892C75.7508 327.842 76.5698 326.788 77.2708 325.738C77.6228 325.213 77.9668 324.7 78.2948 324.209C78.6138 323.713 78.8928 323.226 79.1128 322.75C79.3548 322.226 79.4938 321.685 79.5598 321.141C79.6458 320.609 79.6528 320.071 79.6068 319.54C79.5138 318.479 79.2068 317.444 78.8648 316.565C78.2148 314.896 76.7498 313.897 74.9618 314.08C74.0208 314.175 72.9368 314.405 71.8958 314.886C71.3758 315.126 70.8658 315.429 70.3928 315.806C69.9408 316.195 69.5288 316.661 69.1808 317.21C68.8648 317.709 68.5668 318.27 68.2828 318.87C67.9938 319.468 67.7298 320.11 67.5098 320.788C67.0568 322.136 66.6148 323.539 66.2278 324.875C65.8628 326.222 65.4918 327.475 65.0518 328.485C64.6108 329.495 64.1738 330.292 63.5478 330.68C62.3348 331.469 60.8628 332.197 59.6148 333.588C58.9778 334.279 58.3628 335.123 57.8068 336.198C57.2548 337.273 56.8468 338.603 56.5088 340.216C55.8838 343.462 56.2538 346.908 56.8248 349.835C57.0708 351.296 57.4118 352.641 57.6538 353.801C57.8938 354.961 58.0198 355.935 57.9638 356.681C57.8868 358.174 56.9888 358.717 55.9038 359.376C54.8238 360.035 53.5198 360.803 52.8098 362.776C52.5238 363.548 52.6158 364.467 52.9698 365.528C53.3368 366.59 54.0258 367.795 54.8358 369.137C55.6258 370.479 56.6708 371.956 57.7468 373.569C58.7838 375.186 60.0128 376.929 61.1348 378.831C61.9248 380.162 63.4648 379.941 63.9398 378.495C64.6308 376.408 65.4208 374.588 66.3478 372.99C67.2348 371.394 68.1088 370.034 68.9378 368.855C69.7478 367.677 70.3808 366.684 70.8038 365.822C71.2368 364.96 71.3968 364.226 71.1628 363.566Z" fill="#F3CE87"/>
<path d="M63.3533 384.058C63.1523 384.094 62.9573 383.912 62.9173 383.65C62.9173 383.65 62.7593 382.63 62.4833 380.846C62.4193 380.399 62.3253 379.908 62.2673 379.367C62.2103 378.826 62.1483 378.241 62.0823 377.615C61.9503 376.364 61.7803 374.955 61.7203 373.408C61.3303 367.239 61.4563 358.928 62.9373 350.798C63.5763 346.718 64.6373 342.721 65.6893 339.001C66.8513 335.311 68.0593 331.904 69.2973 329.067C70.4733 326.202 71.6793 323.918 72.4583 322.289C73.3283 320.707 73.8253 319.803 73.8253 319.803C73.9523 319.571 74.2003 319.465 74.3773 319.565C74.5543 319.665 74.5963 319.933 74.4693 320.162C74.4693 320.162 73.9763 321.059 73.1123 322.629C72.3403 324.246 71.1433 326.511 69.9763 329.355C68.7473 332.171 67.5483 335.552 66.3953 339.214C65.3523 342.907 64.2983 346.874 63.6643 350.923C62.1933 358.993 62.0693 367.241 62.4563 373.362C62.5153 374.898 62.6853 376.296 62.8163 377.537C62.8823 378.157 62.9433 378.738 62.9993 379.275C63.0573 379.812 63.1513 380.299 63.2143 380.743C63.4883 382.513 63.6453 383.525 63.6453 383.525C63.6843 383.782 63.5533 384.022 63.3533 384.058Z" fill="white"/>
<path d="M436.74 416.552H410.184L406.867 383.496H440.057L436.74 416.552Z" fill="#F0F1F3"/>
<path d="M440.057 383.497C440.057 381.665 432.627 380.18 423.462 380.18C414.297 380.18 406.867 381.665 406.867 383.497C406.867 385.329 414.297 386.814 423.462 386.814C432.627 386.814 440.057 385.329 440.057 383.497Z" fill="#F0F1F3"/>
<path d="M438.046 383.496C438.046 381.887 431.518 380.582 423.464 380.582C415.411 380.582 408.883 381.887 408.883 383.496C408.883 385.105 415.411 386.41 423.464 386.41C431.517 386.41 438.046 385.106 438.046 383.496Z" fill="#1E2346"/>
<path d="M436.743 416.442C436.743 414.61 430.798 413.125 423.465 413.125C416.132 413.125 410.188 414.61 410.188 416.442C410.188 418.274 416.132 419.759 423.465 419.759C430.799 419.759 436.743 418.274 436.743 416.442Z" fill="#F0F1F3"/>
<path d="M439.375 372.058C439.472 370.506 438.802 369.369 438.222 368.357C437.645 367.347 437.19 366.475 437.855 365.511C438.2 365.039 438.856 364.579 439.663 364.095C440.468 363.609 441.435 363.109 442.504 362.616C444.59 361.581 446.92 360.497 448.654 358.95C449.542 358.192 450.137 357.412 450.606 356.69C451.078 355.97 451.366 355.25 451.548 354.534C451.894 353.085 451.903 351.76 452.007 350.494C452.07 349.876 452.48 349.262 453.157 348.733C453.833 348.203 454.73 347.703 455.69 347.21C456.664 346.736 457.735 346.319 458.706 345.847C459.672 345.363 460.63 344.964 461.337 344.415C461.732 344.121 462.051 343.759 462.311 343.355C462.582 342.97 462.794 342.539 462.96 342.084C463.292 341.175 463.445 340.172 463.513 339.275C463.641 337.573 462.863 335.979 461.343 335.188C460.544 334.771 459.572 334.39 458.531 334.24C458.011 334.165 457.474 334.147 456.937 334.21C456.411 334.292 455.888 334.458 455.382 334.725C454.474 335.226 453.485 335.904 452.583 336.774C451.673 337.633 450.753 338.546 449.905 339.427C449.07 340.327 448.268 341.146 447.504 341.735C446.739 342.323 446.057 342.738 445.377 342.732C444.043 342.749 442.512 342.593 440.899 343.081C440.084 343.315 439.225 343.685 438.326 344.27C437.429 344.857 436.55 345.718 435.622 346.841C433.799 349.126 432.756 352.049 432.1 354.635C431.741 355.909 431.508 357.131 431.263 358.158C431.017 359.184 430.745 360.008 430.403 360.566C429.746 361.698 428.74 361.699 427.521 361.708C426.306 361.719 424.85 361.715 423.427 362.941C422.864 363.417 422.576 364.185 422.465 365.183C422.365 366.187 422.491 367.449 422.675 368.867C422.842 370.277 423.179 371.9 423.494 373.634C423.775 375.355 424.172 377.245 424.415 379.2C424.59 380.571 426.067 381.057 427.074 380.154C428.532 378.852 429.968 377.811 431.428 377.005C432.852 376.184 434.168 375.547 435.363 375.029C436.542 374.504 437.49 374.047 438.196 373.591C438.908 373.142 439.33 372.664 439.375 372.058Z" fill="#26377C"/>
<path d="M424.297 384.178C424.101 384.122 423.999 383.899 424.068 383.68C424.068 383.68 424.339 382.827 424.812 381.334C425.031 380.582 425.363 379.691 425.753 378.672C426.137 377.651 426.551 376.492 427.113 375.272C429.225 370.347 432.617 363.979 437.049 358.346C439.188 355.474 441.636 352.853 443.967 350.443C446.374 348.107 448.706 346.012 450.833 344.374C452.922 342.686 454.801 341.466 456.076 340.558C457.405 339.729 458.164 339.256 458.164 339.256C458.359 339.135 458.602 339.178 458.708 339.352C458.814 339.526 458.743 339.765 458.551 339.885C458.551 339.885 457.799 340.354 456.483 341.174C455.221 342.074 453.36 343.281 451.291 344.954C449.184 346.576 446.874 348.652 444.489 350.966C442.181 353.354 439.754 355.95 437.635 358.796C433.244 364.377 429.884 370.685 427.793 375.563C427.237 376.771 426.827 377.919 426.446 378.93C426.06 379.939 425.731 380.821 425.514 381.566C425.045 383.044 424.777 383.888 424.777 383.888C424.708 384.104 424.493 384.234 424.297 384.178Z" fill="white"/>
<path d="M428.192 365.996C427.146 364.624 425.751 364.358 424.593 364.127C423.43 363.897 422.471 363.718 422.138 362.597C421.956 362.041 421.911 361.26 421.94 360.3C421.971 359.339 422.061 358.202 422.042 356.992C422.074 354.551 421.808 351.715 420.638 349.336C420.033 348.163 419.409 347.238 418.704 346.565C417.996 345.893 417.275 345.428 416.565 345.097C415.165 344.42 413.696 344.358 412.456 344.17C411.82 344.087 411.283 343.615 410.708 342.972C410.134 342.328 409.577 341.464 409.006 340.52C408.418 339.592 407.768 338.623 407.113 337.705C406.791 337.241 406.437 336.82 406.07 336.445C405.707 336.066 405.338 335.725 404.966 335.442C404.556 335.131 404.108 334.915 403.642 334.779C403.161 334.661 402.664 334.619 402.173 334.636C401.189 334.668 400.226 334.932 399.416 335.251C397.876 335.855 396.862 337.31 396.623 338.94C396.498 339.799 396.423 340.763 396.523 341.651C396.573 342.095 396.668 342.52 396.825 342.905C396.968 343.308 397.172 343.676 397.459 343.987C397.72 344.269 398.032 344.535 398.381 344.791C398.737 345.038 399.111 345.297 399.494 345.563C400.259 346.094 401.13 346.583 401.902 347.119C402.656 347.671 403.353 348.225 403.843 348.783C404.333 349.34 404.558 349.947 404.463 350.517C404.245 351.682 403.92 352.883 403.866 354.223C403.85 354.885 403.927 355.562 404.173 356.255C404.417 356.951 404.76 357.709 405.381 358.483C406.575 360.052 408.456 361.296 410.14 362.495C411.013 363.076 411.79 363.654 412.421 364.199C413.053 364.742 413.552 365.245 413.752 365.71C414.124 366.652 413.458 367.334 412.638 368.107C411.814 368.882 410.869 369.744 410.534 371.067C410.411 371.584 410.674 372.058 411.224 372.567C411.762 373.078 412.531 373.635 413.505 374.299C414.497 374.96 415.571 375.75 416.712 376.724C417.89 377.693 418.986 378.863 420.049 380.265C420.785 381.241 422.341 381.186 422.865 380.044C423.613 378.405 424.497 376.847 425.229 375.404C426 373.956 426.761 372.602 427.306 371.395C427.869 370.185 428.336 369.093 428.512 368.183C428.678 367.272 428.609 366.531 428.192 365.996Z" fill="#86D4D4"/>
<path d="M421.68 384.301C421.476 384.302 421.305 384.141 421.298 383.942C421.298 383.942 421.27 383.164 421.221 381.803C421.215 381.121 421.138 380.297 421.04 379.353C420.948 378.408 420.865 377.34 420.657 376.19C419.966 371.58 418.432 365.473 415.733 359.842C414.47 356.99 412.854 354.315 411.298 351.846C409.652 349.434 408.015 347.248 406.458 345.505C404.948 343.719 403.52 342.391 402.57 341.414C401.553 340.507 400.972 339.989 400.972 339.989C400.823 339.856 400.811 339.624 400.944 339.47C401.077 339.316 401.308 339.3 401.459 339.435C401.459 339.435 402.047 339.96 403.077 340.879C404.039 341.868 405.485 343.214 407.014 345.021C408.59 346.786 410.247 348.998 411.913 351.44C413.489 353.938 415.124 356.646 416.402 359.532C419.133 365.23 420.687 371.412 421.386 376.08C421.597 377.245 421.681 378.327 421.774 379.284C421.873 380.24 421.951 381.075 421.957 381.766C422.007 383.146 422.035 383.934 422.035 383.934C422.043 384.135 421.883 384.3 421.68 384.301Z" fill="white"/>
<path d="M431.163 363.566C430.546 361.885 429.439 361.073 428.466 360.346C427.497 359.62 426.698 358.975 426.859 357.618C426.957 356.942 427.341 356.107 427.85 355.159C428.356 354.21 429.002 353.152 429.75 352.038C431.172 349.791 432.809 347.327 433.714 344.734C434.195 343.442 434.395 342.301 434.511 341.296C434.63 340.293 434.58 339.4 434.434 338.579C434.115 336.929 433.548 335.618 433.085 334.314C432.872 333.67 432.977 332.823 433.372 331.901C433.766 330.978 434.379 329.952 435.053 328.892C435.751 327.842 436.57 326.788 437.271 325.738C437.623 325.213 437.967 324.7 438.295 324.209C438.614 323.713 438.893 323.226 439.113 322.75C439.355 322.226 439.494 321.685 439.56 321.141C439.646 320.609 439.654 320.071 439.607 319.54C439.514 318.479 439.207 317.444 438.865 316.565C438.215 314.896 436.75 313.897 434.962 314.08C434.021 314.175 432.937 314.405 431.896 314.886C431.376 315.126 430.866 315.429 430.393 315.806C429.941 316.195 429.53 316.661 429.181 317.21C428.865 317.709 428.567 318.27 428.283 318.87C427.994 319.468 427.73 320.11 427.51 320.788C427.057 322.136 426.615 323.539 426.228 324.875C425.863 326.222 425.492 327.475 425.052 328.485C424.611 329.495 424.174 330.292 423.548 330.68C422.335 331.469 420.863 332.197 419.615 333.588C418.978 334.279 418.363 335.123 417.807 336.198C417.255 337.273 416.847 338.603 416.509 340.216C415.884 343.462 416.254 346.908 416.825 349.835C417.071 351.296 417.412 352.641 417.654 353.801C417.894 354.961 418.02 355.935 417.964 356.681C417.887 358.174 416.989 358.717 415.904 359.376C414.824 360.035 413.52 360.803 412.81 362.776C412.524 363.548 412.616 364.467 412.97 365.528C413.337 366.59 414.027 367.795 414.836 369.137C415.626 370.479 416.671 371.956 417.747 373.569C418.784 375.186 420.013 376.929 421.134 378.831C421.924 380.162 423.464 379.941 423.939 378.495C424.63 376.408 425.42 374.588 426.347 372.99C427.234 371.394 428.108 370.034 428.937 368.855C429.747 367.677 430.38 366.684 430.803 365.822C431.236 364.96 431.397 364.226 431.163 363.566Z" fill="#F3CE87"/>
<path d="M423.353 384.058C423.152 384.094 422.957 383.912 422.917 383.65C422.917 383.65 422.759 382.63 422.483 380.846C422.419 380.399 422.325 379.908 422.267 379.367C422.21 378.826 422.148 378.241 422.082 377.615C421.95 376.364 421.78 374.955 421.72 373.408C421.33 367.239 421.456 358.928 422.937 350.798C423.576 346.718 424.637 342.721 425.689 339.001C426.85 335.311 428.059 331.904 429.297 329.067C430.473 326.202 431.679 323.918 432.458 322.289C433.328 320.707 433.825 319.803 433.825 319.803C433.952 319.571 434.2 319.465 434.377 319.565C434.554 319.665 434.596 319.933 434.469 320.162C434.469 320.162 433.976 321.059 433.112 322.629C432.34 324.246 431.143 326.511 429.976 329.355C428.747 332.171 427.548 335.552 426.395 339.214C425.352 342.907 424.298 346.874 423.664 350.923C422.193 358.993 422.069 367.241 422.456 373.362C422.515 374.898 422.685 376.296 422.815 377.537C422.88 378.157 422.942 378.738 422.998 379.275C423.056 379.812 423.15 380.299 423.213 380.743C423.487 382.513 423.644 383.525 423.644 383.525C423.683 383.782 423.553 384.022 423.353 384.058Z" fill="white"/>
</g>
<defs>
<clipPath id="clip0_819_5892">
<rect width="500" height="500" fill="white"/>
</clipPath>
</defs>
</svg>
