<?xml version="1.0" encoding="utf-8"?>
<!-- Generator: Adobe Illustrator 27.5.0, SVG Export Plug-In . SVG Version: 6.00 Build 0)  -->
<svg version="1.1" id="Layer_1" xmlns="http://www.w3.org/2000/svg" xmlns:xlink="http://www.w3.org/1999/xlink" x="0px" y="0px"
	 viewBox="0 0 3365 2000" style="enable-background:new 0 0 3365 2000;" xml:space="preserve">
<rect style="fill:#FFFFFF;" width="3365" height="2000"/>
<g>
	<path style="fill:#EAFCFC;" d="M926.94,149.107c437.282-25.287,895.755,106.435,828.362,297.38s360.295-67.823,530.971,1.021
		c121.512,49.013,72.938,198.217,131.723,258.338c134.785,137.848,272.633-35.739,444.178,68.414
		c171.545,104.152,100.213,1078.144,30.365,1078.004l-2645.399-4.83l-31.654,1.021c0,0-194.009-279.781-18.38-443.157
		c175.629-163.375,55.041-238.08,33.696-301.224c-24.506-72.498-81.688-199.114,167.46-292.034
		c249.148-92.92,184.819-295.098,178.692-336.963C570.829,433.213,489.659,174.395,926.94,149.107L926.94,149.107z"/>
	<rect x="2274.84" y="296.578" style="opacity:0.6;fill:#9BC1F9;" width="200.396" height="1551.12"/>
	<rect x="1994.978" y="769.706" style="opacity:0.6;fill:#9BC1F9;" width="200.395" height="1077.992"/>
	<rect x="2558.73" y="632.643" style="opacity:0.6;fill:#9BC1F9;" width="200.395" height="1215.056"/>
	<rect x="1715.113" y="584.858" style="opacity:0.6;fill:#9BC1F9;" width="200.396" height="1262.84"/>
	<rect x="1435.25" y="959.284" style="opacity:0.6;fill:#9BC1F9;" width="200.396" height="888.414"/>
	<g>
		<rect x="2274.84" y="654.068" style="opacity:0.3;fill:#9BC1F9;" width="200.396" height="1193.63"/>
		<rect x="1994.978" y="1018.153" style="opacity:0.3;fill:#9BC1F9;" width="200.395" height="829.545"/>
		<rect x="2558.73" y="912.679" style="opacity:0.3;fill:#9BC1F9;" width="200.395" height="935.019"/>
		<rect x="1715.113" y="875.907" style="opacity:0.3;fill:#9BC1F9;" width="200.396" height="971.791"/>
		<rect x="1435.25" y="1164.038" style="opacity:0.3;fill:#9BC1F9;" width="200.396" height="683.66"/>
	</g>
	<polygon style="fill:#5183BF;" points="2856.53,308.447 2696.848,429.214 2757.76,433.098 2376.578,1103.975 2165.521,787.547 
		1866.957,1483.962 1674.915,1211.194 1435.558,1549.543 1450.619,1610.1 1674.813,1294.72 1877.813,1583.049 2175.281,889.191 
		2380.061,1196.205 2802.073,453.471 2841.252,495.606 	"/>
	<g>
		<path style="fill:#3C8F7C;" d="M1252.989,1399.188c-229.15-182.476-421.687-418.495-567.469-695.624
			c-105.059,84.395-210.118,168.789-315.176,253.183c168.557,320.425,391.172,593.315,656.121,804.298
			C1101.973,1640.425,1177.481,1519.807,1252.989,1399.188z"/>
		<path style="fill:#96D9C9;" d="M636.17,769.735c-65.26,53.261-130.52,106.522-195.78,159.784
			c15.542,28.975,9.902,68.061-13.251,87.89c148.176,262.001,333.876,489.641,550.12,674.357
			c17.682-26.534,51.005-31.685,74.952-12.254c47.613-74.894,95.227-149.787,142.839-224.681
			c-22.035-17.885-25.185-54.435-7.514-80.948c-189.895-162.21-352.968-362.111-483.088-592.189
			C681.311,801.509,650.474,796.396,636.17,769.735z"/>
		<g>
			<path style="fill:#50BFA5;" d="M899.905,1368.669c48.926-63.14,48.458-156.292,2.306-212.015
				c-46.277-55.58-125.342-58.198-180.039-2.008c-54.609,56.073-59.828,155.747-7.804,218.323
				C766.333,1435.617,851.08,1431.708,899.905,1368.669z"/>
			<path style="fill:#3C8F7C;" d="M896.665,1189.489c-6.147,6.827-12.296,13.651-18.446,20.475
				c14.708,26.961,11.595,54.818-4.263,73.022c-16.009,18.328-33.936,20.025-61.262,3.835
				c-19.846-11.212-29.385-14.522-35.432-7.968c-5.117,5.53-6.813,15.571,4.032,29.281c5.893,7.434,11.778,12.403,16.989,15.906
				c6.945,4.671,9.14,15.219,4.86,23.334l0,0c-4.14,7.844-12.881,10.447-19.575,5.676c-5.471-3.899-11.447-9.219-17.895-16.606
				c-5.319,5.871-10.638,11.74-15.959,17.607c-5.571-6.985-11.109-14.009-16.613-21.066c5.791-6.273,11.581-12.55,17.37-18.827
				c-14.048-27.133-11.256-54.104,5.05-71.214c17.998-18.904,38.81-13.098,62.668,1.867c16.543,10.323,26.132,11.952,32.985,4.327
				c7.222-8.051,4.871-20.321-4.228-31.923c-6.249-7.97-13.495-14.039-20.64-18.54c-7.021-4.421-8.929-15.236-4.208-23.32
				c0.172-0.296,0.344-0.591,0.516-0.886c4.284-7.339,12.466-9.824,18.707-5.751c7.482,4.886,15.531,11.857,22.64,20.144
				c5.775-6.295,11.55-12.591,17.322-18.888C886.377,1176.512,891.506,1183.018,896.665,1189.489z"/>
			<path style="fill:#50BFA5;" d="M1080.437,1531.147c-52.22-44.714-102.538-92.097-150.843-142.011
				c-8.278,10.766-16.555,21.529-24.833,32.294c48.981,50.613,100.004,98.659,152.955,143.999
				C1065.29,1554.003,1072.863,1542.574,1080.437,1531.147z"/>
		</g>
	</g>
	<g>
		<path style="fill:#3C8F7C;" d="M1206.266,1325.615c-287.823-36.502-570.099-132.802-831.957-283.827
			c-49.781,116.635-99.561,233.271-149.343,349.905c302.767,174.62,629.141,285.965,961.929,328.169
			C1193.352,1588.447,1199.809,1457.031,1206.266,1325.615z"/>
		<path style="fill:#96D9C9;" d="M363.897,1117.629c-30.514,73.116-61.026,146.231-91.54,219.348
			c27.637,15.648,41.864,49.334,31.494,76.014c256.535,137.889,528.788,230.77,806.522,275.15
			c2.349-29.416,28.71-49.255,58.965-45.153c4.642-81.942,9.283-163.884,13.924-245.826c-27.842-3.778-48.444-31.296-46.096-60.69
			c-243.893-38.973-482.973-120.536-708.249-241.623C418.556,1121.508,389.331,1132.027,363.897,1117.629z"/>
		<g>
			<path style="fill:#50BFA5;" d="M885.341,1468.29c11.527-73.234-34.43-146.941-101.676-169.348
				c-67.285-22.235-137.087,13.06-157.014,83.507c-19.907,70.313,24.31,151.883,99.997,176.952
				C802.317,1584.557,873.853,1541.396,885.341,1468.29z"/>
			<path style="fill:#3C8F7C;" d="M794.915,1327.623c-1.989,8.322-3.981,16.645-5.974,24.967
				c25.93,14.444,36.854,38.023,32.013,59.967c-4.912,22.112-19.618,31.933-51.218,32c-22.682,0.482-32.568,2.364-34.603,10.425
				c-1.73,6.808,1.71,15.577,17.813,21.333c8.742,3.113,16.273,4.275,22.502,4.592c8.303,0.424,15.363,7.759,15.622,16.221l0,0
				c0.248,8.183-6.054,14.38-14.189,13.758c-6.648-0.508-14.429-1.905-23.629-4.721c-1.739,7.174-3.479,14.346-5.221,21.518
				c-8.245-2.911-16.478-5.867-24.699-8.866c1.951-7.717,3.9-15.435,5.848-23.152c-25.443-14.893-36.212-37.616-30.448-58.902
				c6.354-23.51,27.23-28.74,55.225-28.141c19.385,0.373,28.492-2.866,30.703-12.157c2.322-9.803-5.716-18.429-19.274-23.336
				c-9.314-3.371-18.56-4.763-26.954-4.957c-8.246-0.19-15.189-7.871-15.051-16.519c0.004-0.315,0.009-0.631,0.014-0.946
				c0.125-7.849,6-13.689,13.4-13.406c8.872,0.341,19.258,2.068,29.471,5.284c1.927-7.725,3.853-15.45,5.777-23.177
				C779.653,1322.186,787.279,1324.925,794.915,1327.623z"/>
		</g>
	</g>
	<path style="fill:#0E2E35;" d="M1074.099,744.765c-6.979-2.342-13.853-4.987-20.488-8.177c-7.501-3.605-17.222-7.827-23.362-8.771
		c-12.925-1.989-35.131-0.663-47.394,12.594c-15.277,16.516-42.422,2.983-36.954,89.484c6.19,97.911,60.816,87.165,62.142,85.508
		c1.326-1.657,48.72-62.64,48.72-62.64s16.571,36.126,16.571,34.8C1073.334,886.284,1157.947,772.907,1074.099,744.765z"/>
	<g>
		<path style="fill:#3C8F7C;" d="M1131.676,1390.24c-226.453,89.472-476.309,130.371-736.406,120.545
			c17.262,110.675,34.524,221.351,51.786,332.025c300.731,11.362,589.621-35.927,851.451-139.377
			C1242.896,1599.036,1187.286,1494.638,1131.676,1390.24z"/>
		<path style="fill:#96D9C9;" d="M422.492,1573.769c11.326,69.097,22.653,138.192,33.979,207.288
			c27.318,0.812,53.143,21.076,57.832,45.976c250.19,1.832,491.175-37.615,713.893-116.859
			c-11.79-23.737-1.688-49.883,22.236-59.083c-34.227-65.347-68.453-130.694-102.68-196.042
			c-22.019,8.464-49.659-4.416-61.438-28.137c-195.581,69.588-407.202,104.229-626.906,102.62
			C464.095,1554.414,447.63,1574.513,422.492,1573.769z"/>
		<g>
			<path style="fill:#50BFA5;" d="M963.341,1631.99c-25.213-61.421-92.524-99.694-151.802-89.536
				c-59.227,10.306-93.884,66.188-76.069,128.887c17.768,62.587,87.42,107.661,154.069,96.112
				C956.215,1755.979,988.524,1693.297,963.341,1631.99z"/>
			<path style="fill:#3C8F7C;" d="M832.898,1560.059c2.371,7.259,4.739,14.518,7.107,21.777
				c25.522,0.577,44.303,14.366,50.846,33.337c6.57,19.131,0.363,32.751-22.628,45.729c-16.304,9.652-22.643,15.152-20.426,22.227
				c1.863,5.979,8.395,11.362,22.769,9.231c7.798-1.164,13.818-3.346,18.501-5.647c6.244-3.068,14.753-0.277,18.827,6.169l0,0
				c3.935,6.234,2.188,13.611-4.023,16.457c-5.078,2.326-11.387,4.427-19.382,6.011c2.025,6.266,4.049,12.53,6.072,18.796
				c-7.343,1.119-14.698,2.198-22.065,3.238c-2.12-6.772-4.242-13.546-6.365-20.318c-25.372-1.124-43.648-14.314-49.217-33.155
				c-6.161-20.803,6.648-33.392,27.319-44.379c14.294-7.641,19.443-13.874,16.789-21.973c-2.808-8.539-12.623-11.932-24.753-10.185
				c-8.333,1.199-15.708,3.904-21.913,7.188c-6.096,3.226-14.679,0.118-18.547-6.634c-0.141-0.246-0.283-0.492-0.424-0.739
				c-3.512-6.128-1.912-13.054,3.61-15.861c6.621-3.366,14.98-6.276,23.897-7.964c-2.142-6.77-4.284-13.54-6.429-20.309
				C819.284,1562.092,826.097,1561.094,832.898,1560.059z"/>
			<path style="fill:#50BFA5;" d="M1155.234,1569.26c-53.86,19.092-108.856,35.707-164.841,49.823
				c4.326,10.426,8.65,20.852,12.976,31.277c56.769-14.313,112.534-31.162,167.149-50.521
				C1165.424,1589.646,1160.329,1579.453,1155.234,1569.26z"/>
		</g>
	</g>
	<g>
		<path style="fill:#E59F39;" d="M758.053,1755.244v81.076c0,13.107,146.221,23.733,326.593,23.733
			c180.373,0,326.594-10.626,326.594-23.733v-81.076H758.053z"/>
		<g>
			<path style="fill:#EAB054;" d="M994.403,1859.136v-103.892h-236.35v81.076C758.053,1847.153,857.923,1856.29,994.403,1859.136z"
				/>
			<path style="fill:#EAB054;" d="M1005.403,1859.35c25.371,0.46,51.915,0.704,79.243,0.704c40.722,0,79.702-0.542,115.653-1.531
				v-103.278h-194.896V1859.35z"/>
			<path style="fill:#EAB054;" d="M1213.385,1858.139c116.36-3.631,197.855-12.033,197.855-21.818v-81.076h-197.855V1858.139z"/>
		</g>
		<ellipse style="fill:#E59F39;" cx="1084.647" cy="1754.383" rx="326.593" ry="23.732"/>
		<path style="fill:#F7CC7F;" d="M1353.589,1754.383c0,9.088-120.41,16.455-268.943,16.455s-268.942-7.367-268.942-16.455
			c0-9.087,120.41-16.454,268.942-16.454S1353.589,1745.296,1353.589,1754.383z"/>
	</g>
	<g>
		<path style="fill:#E59F39;" d="M702.176,1669.449v81.077c0,13.106,146.221,23.732,326.593,23.732s326.594-10.626,326.594-23.732
			v-81.077H702.176z"/>
		<g>
			<path style="fill:#EAB054;" d="M938.526,1773.341v-103.892h-236.35v81.077C702.176,1761.358,802.046,1770.496,938.526,1773.341z"
				/>
			<path style="fill:#EAB054;" d="M949.526,1773.556c25.371,0.459,51.915,0.703,79.243,0.703c40.722,0,79.702-0.542,115.653-1.531
				v-103.278H949.526V1773.556z"/>
			<path style="fill:#EAB054;" d="M1157.508,1772.344c116.36-3.631,197.855-12.032,197.855-21.817v-81.077h-197.855V1772.344z"/>
		</g>
		<ellipse style="fill:#E59F39;" cx="1028.77" cy="1668.589" rx="326.593" ry="23.732"/>
		<path style="fill:#F7CC7F;" d="M1297.712,1668.589c0,9.087-120.41,16.454-268.942,16.454c-148.533,0-268.942-7.367-268.942-16.454
			c0-9.088,120.409-16.455,268.942-16.455C1177.302,1652.134,1297.712,1659.501,1297.712,1668.589z"/>
	</g>
	<g>
		<path style="fill:#E59F39;" d="M739.405,1581.375v81.076c0,13.107,146.221,23.732,326.593,23.732s326.593-10.625,326.593-23.732
			v-81.076H739.405z"/>
		<g>
			<path style="fill:#EAB054;" d="M975.755,1685.266v-103.891h-236.35v81.076C739.405,1673.283,839.275,1682.42,975.755,1685.266z"
				/>
			<path style="fill:#EAB054;" d="M986.755,1685.48c25.371,0.459,51.915,0.703,79.243,0.703c40.721,0,79.702-0.542,115.653-1.531
				v-103.277H986.755V1685.48z"/>
			<path style="fill:#EAB054;" d="M1194.737,1684.269c116.36-3.631,197.854-12.032,197.854-21.817v-81.076h-197.854V1684.269z"/>
		</g>
		<ellipse style="fill:#E59F39;" cx="1065.999" cy="1580.514" rx="326.593" ry="23.732"/>
		<path style="fill:#F7CC7F;" d="M1334.941,1580.514c0,9.088-120.41,16.454-268.943,16.454c-148.533,0-268.942-7.366-268.942-16.454
			s120.409-16.455,268.942-16.455C1214.531,1564.059,1334.941,1571.426,1334.941,1580.514z"/>
	</g>
	<g>
		<path style="fill:#E59F39;" d="M702.176,1494.507v81.076c0,13.107,146.221,23.733,326.593,23.733s326.594-10.626,326.594-23.733
			v-81.076H702.176z"/>
		<g>
			<path style="fill:#EAB054;" d="M938.526,1598.398v-103.892h-236.35v81.076C702.176,1586.415,802.046,1595.553,938.526,1598.398z"
				/>
			<path style="fill:#EAB054;" d="M949.526,1598.612c25.371,0.46,51.915,0.704,79.243,0.704c40.722,0,79.702-0.542,115.653-1.532
				v-103.277H949.526V1598.612z"/>
			<path style="fill:#EAB054;" d="M1157.508,1597.4c116.36-3.63,197.855-12.032,197.855-21.817v-81.076h-197.855V1597.4z"/>
		</g>
		<ellipse style="fill:#E59F39;" cx="1028.77" cy="1493.646" rx="326.593" ry="23.732"/>
		<path style="fill:#F7CC7F;" d="M1297.712,1493.646c0,9.088-120.41,16.455-268.942,16.455c-148.533,0-268.942-7.367-268.942-16.455
			c0-9.087,120.409-16.454,268.942-16.454C1177.302,1477.191,1297.712,1484.559,1297.712,1493.646z"/>
	</g>
	<g>
		<path style="fill:#E59F39;" d="M2988.816,1748.316v77.968c0,12.604-140.614,22.823-314.07,22.823
			c-173.457,0-314.071-10.219-314.071-22.823v-77.968H2988.816z"/>
		<g>
			<path style="fill:#EAB054;" d="M2761.529,1848.225v-99.908h227.287v77.968
				C2988.816,1836.701,2892.776,1845.488,2761.529,1848.225z"/>
			<path style="fill:#EAB054;" d="M2750.95,1848.431c-24.397,0.441-49.924,0.677-76.204,0.677c-39.16,0-76.646-0.521-111.219-1.473
				v-99.318h187.423V1848.431z"/>
			<path style="fill:#EAB054;" d="M2550.943,1847.266c-111.898-3.491-190.269-11.571-190.269-20.981v-77.968h190.269V1847.266z"/>
		</g>
		<ellipse style="fill:#E59F39;" cx="2674.746" cy="1747.488" rx="314.071" ry="22.822"/>
		<path style="fill:#F7CC7F;" d="M2416.115,1747.488c0,8.739,115.793,15.824,258.631,15.824s258.63-7.085,258.63-15.824
			s-115.792-15.823-258.63-15.823S2416.115,1738.749,2416.115,1747.488z"/>
	</g>
	<g>
		<path style="fill:#E59F39;" d="M3042.552,1665.812v77.968c0,12.604-140.614,22.822-314.071,22.822s-314.071-10.218-314.071-22.822
			v-77.968H3042.552z"/>
		<g>
			<path style="fill:#EAB054;" d="M2815.264,1765.72v-99.908h227.288v77.968C3042.552,1754.196,2946.512,1762.983,2815.264,1765.72z
				"/>
			<path style="fill:#EAB054;" d="M2804.686,1765.926c-24.398,0.441-49.924,0.676-76.205,0.676c-39.16,0-76.646-0.521-111.219-1.473
				v-99.317h187.424V1765.926z"/>
			<path style="fill:#EAB054;" d="M2604.678,1764.761c-111.898-3.491-190.269-11.571-190.269-20.981v-77.968h190.269V1764.761z"/>
		</g>
		<ellipse style="fill:#E59F39;" cx="2728.48" cy="1664.983" rx="314.071" ry="22.822"/>
		<ellipse style="fill:#F7CC7F;" cx="2728.48" cy="1664.983" rx="258.631" ry="15.823"/>
	</g>
	<g>
		<path style="fill:#E59F39;" d="M3006.75,1581.113v77.968c0,12.604-140.614,22.822-314.07,22.822
			c-173.457,0-314.072-10.218-314.072-22.822v-77.968H3006.75z"/>
		<g>
			<path style="fill:#EAB054;" d="M2779.463,1681.021v-99.908h227.287v77.968C3006.75,1669.498,2910.709,1678.285,2779.463,1681.021
				z"/>
			<path style="fill:#EAB054;" d="M2768.884,1681.228c-24.398,0.441-49.925,0.676-76.204,0.676c-39.161,0-76.646-0.521-111.22-1.472
				v-99.318h187.424V1681.228z"/>
			<path style="fill:#EAB054;" d="M2568.876,1680.063c-111.897-3.491-190.269-11.571-190.269-20.981v-77.968h190.269V1680.063z"/>
		</g>
		<ellipse style="fill:#E59F39;" cx="2692.679" cy="1580.285" rx="314.071" ry="22.822"/>
		<ellipse style="fill:#F7CC7F;" cx="2692.679" cy="1580.285" rx="258.63" ry="15.823"/>
	</g>
	<g>
		<path style="fill:#E59F39;" d="M3042.552,1497.576v77.968c0,12.604-140.614,22.823-314.071,22.823s-314.071-10.219-314.071-22.823
			v-77.968H3042.552z"/>
		<g>
			<path style="fill:#EAB054;" d="M2815.264,1597.484v-99.908h227.288v77.968
				C3042.552,1585.961,2946.512,1594.748,2815.264,1597.484z"/>
			<path style="fill:#EAB054;" d="M2804.686,1597.69c-24.398,0.441-49.924,0.677-76.205,0.677c-39.16,0-76.646-0.521-111.219-1.473
				v-99.318h187.424V1597.69z"/>
			<path style="fill:#EAB054;" d="M2604.678,1596.525c-111.898-3.491-190.269-11.571-190.269-20.981v-77.968h190.269V1596.525z"/>
		</g>
		<ellipse style="fill:#E59F39;" cx="2728.48" cy="1496.748" rx="314.071" ry="22.822"/>
		<ellipse style="fill:#F7CC7F;" cx="2728.48" cy="1496.748" rx="258.631" ry="15.823"/>
	</g>
	<g>
		<path style="fill:#E59F39;" d="M3188.685,1402.831l-18.866,65.866c-3.051,10.648-124.313-14.745-270.847-56.717
			c-146.534-41.973-262.852-84.631-259.802-95.278l18.866-65.866L3188.685,1402.831z"/>
		<g>
			<path style="fill:#EAB054;" d="M2972.499,1432.234l24.175-84.401l192.011,54.998l-18.866,65.866
				C3167.297,1477.498,3084.037,1461.682,2972.499,1432.234z"/>
			<path style="fill:#EAB054;" d="M2963.512,1429.849c-20.717-5.53-42.339-11.509-64.54-17.868
				c-33.082-9.477-64.624-18.987-93.601-28.156l24.033-83.903l158.333,45.353L2963.512,1429.849z"/>
			<path style="fill:#EAB054;" d="M2794.83,1380.467c-93.686-30.025-157.938-55.815-155.66-63.765l18.866-65.866l160.737,46.04
				L2794.83,1380.467z"/>
		</g>
		<path style="fill:#E59F39;" d="M2658.236,1250.136c-3.05,10.648,113.268,53.306,259.802,95.278s267.797,67.365,270.847,56.718
			c3.05-10.648-113.267-53.306-259.802-95.278C2782.549,1264.881,2661.287,1239.488,2658.236,1250.136z"/>
		<path style="fill:#F7CC7F;" d="M2705.072,1263.551c-2.115,7.383,93.992,41.388,214.66,75.951s220.202,56.598,222.316,49.215
			c2.115-7.383-93.991-41.387-214.659-75.95C2806.723,1278.203,2707.187,1256.169,2705.072,1263.551z"/>
	</g>
	<g>
		<path style="fill:#E59F39;" d="M3017.08,949.504l20.088,65.504c3.248,10.59-112.256,55.403-257.983,100.095
			c-145.729,44.691-266.497,72.336-269.745,61.747l-20.088-65.504L3017.08,949.504z"/>
		<g>
			<path style="fill:#EAB054;" d="M2851.867,1092.002l-25.741-83.937l190.954-58.561l20.088,65.504
				C3039.852,1023.76,2961.428,1055.887,2851.867,1092.002z"/>
			<path style="fill:#EAB054;" d="M2843.033,1094.9c-20.384,6.657-41.77,13.431-63.849,20.202
				c-32.9,10.09-64.528,19.311-93.819,27.419l-25.589-83.441l157.462-48.29L2843.033,1094.9z"/>
			<path style="fill:#EAB054;" d="M2674.698,1145.453c-94.91,25.897-162.834,39.302-165.259,31.396l-20.088-65.504l159.852-49.023
				L2674.698,1145.453z"/>
		</g>
		<path style="fill:#E59F39;" d="M2489.139,1110.649c3.247,10.59,124.016-17.056,269.744-61.747
			c145.729-44.691,261.231-89.505,257.983-100.094c-3.247-10.589-124.016,17.055-269.744,61.747
			C2601.395,1055.246,2485.891,1100.06,2489.139,1110.649z"/>
		<path style="fill:#F7CC7F;" d="M2535.716,1096.365c2.251,7.342,101.359-16.54,221.363-53.343
			c120.004-36.802,215.461-72.588,213.21-79.93c-2.252-7.342-101.359,16.54-221.363,53.342
			C2628.922,1053.237,2533.464,1089.023,2535.716,1096.365z"/>
	</g>
	<path style="fill:#F7A491;" d="M1295.066,1764.476c0,0,7.763,41.193,7.771,41.28c0.434,5.368,0.271,18.938,1.431,23.625
		c4.359,17.614,78.45-25.197,59.013-28.639c-1.76-0.312-14.509-13.214-17.43-18.677c-5.08-9.504-9.751-27.214-9.751-27.214
		L1295.066,1764.476z"/>
	<path style="fill:#F47458;" d="M1359.604,1798.172c0,0-19.128,4.735-28.861,5.706c-9.733,0.972-22.225-14.146-29.206-11.287
		c-7.684,3.147-11.868,51.121-11.868,51.121s122.211,5.565,151.094-2.412C1452.206,1838.14,1397.631,1812.743,1359.604,1798.172z"/>
	<path style="fill:#F7A491;" d="M1465.474,1762.597c0,0,7.763,41.194,7.771,41.281c0.434,5.368,0.271,18.937,1.431,23.625
		c4.36,17.614,77.086-22.38,57.648-25.822c-1.76-0.312-13.145-16.03-16.065-21.493c-5.08-9.504-9.751-27.215-9.751-27.215
		L1465.474,1762.597z"/>
	<path style="fill:#F47458;" d="M1528.134,1798.172c0,0-19.129,4.735-28.862,5.706c-9.733,0.972-22.225-14.146-29.206-11.287
		c-7.684,3.147-11.868,51.121-11.868,51.121s122.211,5.565,151.094-2.412C1620.735,1838.14,1566.16,1812.743,1528.134,1798.172z"/>
	<path style="fill:#0E2E35;" d="M1041.741,1350.228l222.329-51.571c0,0,99.704-26.358,123.771,4.584
		c24.066,30.942,126.267,457.986,126.267,457.986s-52.717,4.584-56.155,2.292l-123.402-219.027
		c-11.738-20.833-19.459-43.687-22.764-67.37l-8.751-62.717l-90.536,26.359c0,0-104.289,22.92-146.691-3.438
		S1041.741,1350.228,1041.741,1350.228z"/>
	<path style="fill:#EAB054;" d="M1127.12,966.929c3.512,0.145,13.134,3.354,27.206,29.858
		c17.971,33.846,44.234,136.089,44.234,136.089l-78.397,29.097l-10.072-21.341l-16.588-164.293
		C1093.504,976.338,1126.147,966.889,1127.12,966.929z"/>
	<path style="fill:#F7CC7F;" d="M1023.488,952.191c22.417,0.03,77.886,6.548,103.632,14.746c0,0,18.913,162.003-17.028,285.104
		c-8.045,27.557,6.654,114.232,6.654,114.232l-232.3-3.056c0,0,27.52-209.541,17.153-243.387
		c-10.368-33.846-10.615-151.804-10.615-151.804s1.591-0.247,52.192-8.964C966.778,954.997,999.553,952.16,1023.488,952.191z"/>
	<path style="fill:#F7A491;" d="M888.456,986.034c21.72-8.12,32.345,186.916,35.273,267.193
		c38.462,3.688,105.503,0.028,122.196-1.222c7.851-0.588,25.953-7.195,33.761-8.214c8.001-1.045,15.254-1.588,19.188-0.906
		c1.444,0.25,41.535,16.59,44.965,20.174c4.254,4.443,15.751,15.652,13.811,20.5c-1.94,4.847-22.114-13.506-22.114-13.506
		l-9.859-5.513c12.274,11.949,35.684,27.687,32.313,33.417c-3.289,5.589-24.406-10.382-39.457-21.267
		c12.909,11.621,28.947,32.416,25.252,35.657c-3.321,2.913-21.563-21.161-41.06-28.094c-7.225-2.569-14.426,4.545-20.109,5.404
		c-4.178,0.632-10.626,1.976-14.724,0.818l-19.58-1.89c-7.191,0.649-8.9,0.811-16.162,2.351c-8.431,1.788-22.262,3.671-32.998,6.285
		c-61.822,15.054-82.441,22.045-101.37,22.033C840.449,1319.222,837.124,1005.225,888.456,986.034z"/>
	<path style="fill:#EAB054;" d="M847.237,1169.139c-4.068-82.229-3.473-183.58,42.779-200.872
		c18.25-6.823,50.422,34.201,44.636,202.542C909.96,1172.84,873.71,1174.476,847.237,1169.139z"/>
	<path style="fill:#F47458;" d="M1362.4,1118.887l-218.86,14.297c-5.791,0.378-10.778,4.218-12.625,9.719l-56.653,168.761
		l-120.659,7.882c-3.374,0.221-5.931,3.133-5.71,6.504l0,0c0.22,3.371,3.134,5.926,6.508,5.705l343.406-22.432
		c9.441-0.617,17.641-6.718,20.945-15.583l57.981-155.588C1380.355,1128.433,1372.75,1118.211,1362.4,1118.887z"/>
	<path style="fill:#FFFFFF;" d="M1253.349,1223.169c-0.436,7.533-6.136,13.332-12.732,12.952
		c-6.597-0.38-11.591-6.793-11.155-14.326c0.436-7.532,6.136-13.331,12.732-12.951
		C1248.79,1209.223,1253.784,1215.637,1253.349,1223.169z"/>
	<path style="fill:#184655;" d="M884.582,1357.927l242.276-41.831c0,0,104.75-15.958,128.817,14.984
		c24.066,30.942,93.974,432.051,93.974,432.051s-52.717,4.585-56.155,2.293c-2.663-1.775-66.488-135.497-95.153-195.748
		c-9.097-19.122-15.497-39.406-19.02-60.286l-9.212-54.593l-30.488,10.496c-53.576,18.443-110.662,24.844-166.892,17.86
		c-23.542-2.924-45.514-7.953-59.144-16.425C871.184,1440.369,884.582,1357.927,884.582,1357.927z"/>
	<path style="fill:#F7A491;" d="M1032.629,922.634l4.716,34.985c0,0,10.563,50.404-3.027,60.121
		c-13.591,9.717-57.795-61.558-57.795-61.558l4.669-88.65L1032.629,922.634z"/>
	<path style="fill:#F47458;" d="M979.684,896.263c11.226,30.236,37.964,48.823,56.943,56.033l-3.999-29.661l-51.437-55.102
		L979.684,896.263z"/>
	<path style="fill:#F7A491;" d="M1029.837,771.062c28.798-4.634,54.627,18.448,53.909,47.179
		c-0.313,12.488-1.34,28.081-3.944,44.873c-6.262,40.386-33.909,75.948-52.19,72.772c-18.282-3.175-64.279-38.013-56.18-95.485
		C976.432,804.919,999.617,775.924,1029.837,771.062z"/>
	<path style="fill:#F7A491;" d="M984.116,847.261c-1.542,8.88-8.681,15.058-15.942,13.796c-7.262-1.261-11.899-9.484-10.356-18.365
		c1.542-8.881,8.681-15.058,15.942-13.796C981.022,830.158,985.659,838.38,984.116,847.261z"/>
	<path style="fill:#0E2E35;" d="M973.76,828.896c0,0,22.104,5.474,30.306-8.695c8.203-14.168,37.534-44.742,74.819-32.065
		c37.285,12.677-32.811-30.823-35.794-30.823s-38.777-0.249-38.777-0.249s-27.591,22.62-28.586,25.106
		c-0.994,2.486-8.948,29.58-8.948,29.58L973.76,828.896z"/>
	<g>
		
			<rect x="2056.859" y="1645.301" transform="matrix(-1 -1.224647e-16 1.224647e-16 -1 4663.9277 3490.8545)" style="fill:#50BFA5;" width="550.209" height="200.253"/>
		<g>
			
				<rect x="2056.859" y="1674.484" transform="matrix(-1 -1.224647e-16 1.224647e-16 -1 4663.9277 3374.7295)" style="fill:#96D9C9;" width="550.209" height="25.761"/>
			
				<rect x="2056.859" y="1724.805" transform="matrix(-1 -1.224647e-16 1.224647e-16 -1 4663.9277 3475.3701)" style="fill:#96D9C9;" width="550.209" height="25.761"/>
			
				<rect x="2056.859" y="1775.126" transform="matrix(-1 -1.224647e-16 1.224647e-16 -1 4663.9277 3576.0127)" style="fill:#96D9C9;" width="550.209" height="25.761"/>
			
				<rect x="2056.859" y="1819.793" transform="matrix(-1 -1.224647e-16 1.224647e-16 -1 4663.9277 3665.3467)" style="fill:#96D9C9;" width="550.209" height="25.761"/>
			
				<rect x="2261.681" y="1645.301" transform="matrix(-1 -1.224647e-16 1.224647e-16 -1 4637.792 3490.8545)" style="fill:#F7CC7F;" width="114.431" height="200.253"/>
		</g>
		
			<rect x="2600.392" y="1645.301" transform="matrix(-1 -1.224647e-16 1.224647e-16 -1 5283.875 3490.8545)" style="fill:#3C8F7C;" width="83.092" height="200.253"/>
	</g>
	<rect x="178.131" y="1842.705" style="fill:#0E2E35;" width="3040.394" height="17.349"/>
	<path style="opacity:0.8;fill:#FFFFFF;" d="M1469.583,339.164c-5.573-24.256-27.279-42.353-53.226-42.353
		c-4.764,0-9.384,0.613-13.788,1.758c-12.807-27.386-40.599-46.361-72.827-46.361c-8.333,0-16.368,1.268-23.925,3.622
		c-17.35-28.73-48.871-47.94-84.88-47.94c-42.843,0-79.333,27.191-93.159,65.257c-9.787-5.456-21.055-8.578-33.055-8.578
		c-37.553,0-67.996,30.443-67.996,67.996c0,2.226,0.115,4.426,0.324,6.598H1469.583z"/>
	<path style="opacity:0.8;fill:#FFFFFF;" d="M1669.001,609.031c-4.217-18.356-20.643-32.051-40.279-32.051
		c-3.604,0-7.101,0.464-10.434,1.331c-9.691-20.725-30.724-35.085-55.113-35.085c-6.306,0-12.387,0.959-18.105,2.741
		c-13.13-21.742-36.984-36.279-64.235-36.279c-32.422,0-60.036,20.578-70.5,49.384c-7.407-4.129-15.934-6.491-25.015-6.491
		c-28.418,0-51.457,23.038-51.457,51.457c0,1.685,0.087,3.349,0.245,4.993H1669.001z"/>
	<path style="opacity:0.8;fill:#FFFFFF;" d="M736.453,571.098c3.677-16.007,18.001-27.949,35.124-27.949
		c3.143,0,6.192,0.405,9.099,1.161c8.451-18.072,26.791-30.594,48.059-30.594c5.498,0,10.801,0.837,15.788,2.391
		c11.449-18.959,32.25-31.636,56.013-31.636c28.272,0,52.352,17.944,61.476,43.063c6.458-3.601,13.894-5.66,21.813-5.66
		c24.781,0,44.871,20.089,44.871,44.87c0,1.469-0.076,2.921-0.214,4.354H736.453z"/>
	<g>
		<path style="fill:#50BFA5;" d="M1354.678,799.534l3.898,47.448l27.561-31.039l89.136-73.003l-76.011,23.948
			c0,0-37.423,18.18-39.141,20.58C1358.405,789.868,1354.678,799.534,1354.678,799.534z"/>
		<polygon style="fill:#96D9C9;" points="1314.287,779.146 1475.274,742.94 1354.678,799.534 		"/>
		<polygon style="fill:#96D9C9;" points="1416.591,834.67 1366.969,809.911 1475.274,742.94 		"/>
	</g>
	<g>
		<g>
			<path style="fill:#3C8F7C;" d="M1335.885,825.878c7.434-2.797,12.911-3.4,12.965-3.405l-0.365-3.449
				c-0.24,0.025-5.977,0.657-13.821,3.608L1335.885,825.878z"/>
		</g>
		<g>
			<path style="fill:#3C8F7C;" d="M1256.436,1106.322c6.525-5.961,12.397-12.382,17.455-19.086l2.769,2.088
				c-5.185,6.875-11.203,13.455-17.885,19.559L1256.436,1106.322z M1287.297,1065.16c1.7-3.57,3.265-7.291,4.651-11.059
				c1.569-4.266,2.958-8.726,4.127-13.255l3.358,0.867c-1.198,4.641-2.622,9.211-4.23,13.585c-1.423,3.868-3.029,7.688-4.775,11.353
				L1287.297,1065.16z M1301.306,989.302l3.467-0.078c0.214,9.418-0.065,18.055-0.854,26.403l-3.453-0.326
				C1301.243,1007.089,1301.518,998.584,1301.306,989.302z M1296.371,937.309l3.433-0.491c1.453,10.15,2.49,18.443,3.263,26.099
				l-3.451,0.349C1298.848,955.659,1297.816,947.411,1296.371,937.309z M1292.488,911.191c-1.375-9.346-1.816-18.205-1.312-26.33
				l3.461,0.215c-0.489,7.885-0.058,16.501,1.28,25.599l0.03,0.202l-3.436,0.472L1292.488,911.191z M1296.848,858.799
				c3.492-8.538,8.558-15.981,15.056-22.123l2.383,2.521c-6.138,5.801-10.925,12.837-14.229,20.914L1296.848,858.799z"/>
		</g>
	</g>
</g>
</svg>
